/* XPM */
static char *_7e12dfdf45449a7b032aac85132dd64IySdqiJArcajQwaZ[] = {
/* columns rows colors chars-per-pixel */
"30 30 143 2 ",
"   c #060505",
".  c #090707",
"X  c #0C0B0B",
"o  c #110F0E",
"O  c #121111",
"+  c #1A1512",
"@  c #1E1815",
"#  c #221A16",
"$  c #251D19",
"%  c #291F19",
"&  c #2D221B",
"*  c #32251D",
"=  c #36281F",
"-  c #352921",
";  c #3C2D23",
":  c #343333",
">  c #3E3834",
",  c #443227",
"<  c #473529",
"1  c #4A372A",
"2  c #4F3A2C",
"3  c #4F3734",
"4  c #433A35",
"5  c #4C3F36",
"6  c #463634",
"7  c #553F30",
"8  c #564133",
"9  c #5B4333",
"0  c #574835",
"q  c #594F38",
"w  c #5D523A",
"e  c #5A5C3F",
"r  c #614434",
"t  c #644936",
"y  c #624E39",
"u  c #694C39",
"i  c #754037",
"p  c #7D4537",
"a  c #6A503D",
"s  c #625A3F",
"d  c #65543D",
"f  c #70533F",
"g  c #565F40",
"h  c #605E41",
"j  c #725540",
"k  c #7A5D46",
"l  c #745945",
"z  c #5B6544",
"x  c #516F48",
"c  c #576845",
"v  c #497D4D",
"b  c #507047",
"n  c #567049",
"m  c #5C714E",
"M  c #776349",
"N  c #8F4037",
"B  c #8D4B39",
"V  c #C3473A",
"C  c #C6483B",
"Z  c #CD4C3B",
"A  c #E74C3C",
"S  c #E2503F",
"D  c #8B6E55",
"F  c #917459",
"G  c #BD6948",
"H  c #B5744F",
"J  c #B07A52",
"K  c #E55240",
"L  c #E85342",
"P  c #CC674A",
"I  c #EB6550",
"U  c #EF7C62",
"Y  c #389757",
"T  c #349E5A",
"R  c #2EA85E",
"E  c #2AAD60",
"W  c #28B162",
"Q  c #2ABA67",
"!  c #2BBE69",
"~  c #32B569",
"^  c #36BC6A",
"/  c #38BA69",
"(  c #418952",
")  c #46985A",
"_  c #7E955A",
"`  c #6A9160",
"'  c #4FB567",
"]  c #47BD79",
"[  c #2CC46D",
"{  c #2DC96F",
"}  c #31C56E",
"|  c #2ECC71",
" . c #34CB72",
".. c #38CD74",
"X. c #49C16F",
"o. c #52CC7A",
"O. c #58D07E",
"+. c #8E915B",
"@. c #9E8164",
"#. c #A88A6B",
"$. c #B49775",
"%. c #B79977",
"&. c #E1A17A",
"*. c #69D283",
"=. c #75D387",
"-. c #7ED188",
";. c #AC9C92",
":. c #B8BE8D",
">. c #ACBAA6",
",. c #BEB2AA",
"<. c #C4A682",
"1. c #CEB08A",
"2. c #C2BF8F",
"3. c #D1B38C",
"4. c #DCBD95",
"5. c #F5A280",
"6. c #F7AD88",
"7. c #F8B48E",
"8. c #8BD58D",
"9. c #93D690",
"0. c #99D692",
"q. c #B6D99B",
"w. c #A2DDBB",
"e. c #CBC897",
"r. c #EEC097",
"t. c #E7C89E",
"y. c #E1C299",
"u. c #F7C59B",
"i. c #FBCA9F",
"p. c #DCDBA5",
"a. c #D0DCA3",
"s. c #E1DCA7",
"d. c #E9DEAA",
"f. c #F2D3A6",
"g. c #F6D7AA",
"h. c #F7DFAE",
"j. c #FEDFB0",
"k. c #FFE0B1",
"l. c #BAE6CD",
"z. c #DFF7E9",
"x. c #DAF5E5",
"c. c white",
"v. c #F5FBF8",
/* pixels */
"O X X X X X X O O         X O O X X X X X O O X       X O O ",
"O O X X X X O O X . X X .   O O X X X X X O o   . X .   O O ",
"o O + + + + O O . + % & * & * - - ; - & @ O . X X X X X . O ",
"o O O O O O O O * w c v v v v v v v v z w 7 # X X X X X . O ",
"O O         X # y T W W W W W W W W W W R Y x 8 $ X X X O O ",
"O . . X X X   - m ~ W W W W W W W W W W W W E ( 0 # X X O O ",
"X . X X X X X ; ;.v.w.~ W W W W W W W W W W W W ( 7 + O O   ",
"O X X X X X X < ,.c.c.l.W W W W W W W W W W W W R g @ O O X ",
"O X X X @ 1 t h >.z.z.x.] W W W W W W W W W W W W v # . O O ",
"O O X + e ) } | | | | | | | { { { [ ! Q W W W W W v % . o O ",
"X O O # n ^ } } | | | | | | | | | | | | | { [ ! W b @ X   O ",
"O O X X , q e e z a.q.q.0.9.=.=.O.o./ ^ ^ } } } ^ z + X X O ",
"O o   . X X + @ u k.k.k.k.4.4.k.k.f.M d s s h h s 8 X X O O ",
"O   X X X X   + u k.k.k.k.F k k.k.j.3.4.4.F u u u 7 X X O o ",
"X . X X X X o t D k.k.k.k.D f k.k.k.k.k.k.g.u u u 8 O O O   ",
"O X X X X X & #.k.1.$.<.f.y.4.k.k.k.k.k.k.f.u u u 2 X o O O ",
"O O X X X X % l @.u u u k 4.k.k.k.k.k.k.k.4.F k f ,     O O ",
"O O X X X X O - u u u u j %.k.k.k.k.k.k.k.k.k.t.@.= X . X O ",
"X O O O O O O + 9 ` :.2.e.p.s.i.i.f.s.s.s.s.i.r.a # X X   O ",
"O O         O O y }  .....X.J L L +...*.8.-.P S r O X X X O ",
"O X   . . . X $ c |  .' _ G A A A _ *.d.k.h.&.A p # X X O O ",
"O . X X X X . ; B A A A A A A A A H p.k.k.k.k.I B % X O O X ",
"X X X X X X = 9 i A A A A A A A A K u.k.k.k.k.I p 9 @ O O   ",
"O X X X X X t : 6 A A A A A A A A A I 5.7.6.U A 3 4 ; X O O ",
"O O X X X X 7 4 : N V V C Z Z Z Z Z Z Z C V V N : 5 *   O O ",
"O O O O O O % 9 4 : : : 8 9 8 8 8 8 8 t 4 : : : 5 7 o X X O ",
"X O O O O O O $ 8 8 4 4 9 + . O O O O ; 8 > 4 9 1 + X X   O ",
"O O         o O o & ; , % X O O       X = < ; @ o X X X O O ",
"O X . X X .   O O X X X X X O o   X X .   O O X X X X X O O ",
"o . X X X X . o O O O O O O O . X X X X X X O O O O O O O X "
};
