/* XPM */
static char *ef0b5ca163d443b8f8dd4fedbc04b8b04A5UcdGZ5KsdsOh5[] = {
/* columns rows colors chars-per-pixel */
"30 30 149 2 ",
"   c #060505",
".  c #090707",
"X  c #0C0B0B",
"o  c #100F0F",
"O  c #15110F",
"+  c #1A130F",
"@  c #121111",
"#  c #191411",
"$  c #1E1915",
"%  c #231B16",
"&  c #251E19",
"*  c #291F19",
"=  c #2D231C",
"-  c #33261E",
";  c #37281E",
":  c #352921",
">  c #3A2C23",
",  c #333333",
"<  c #3F3934",
"1  c #383533",
"2  c #433125",
"3  c #473529",
"4  c #4B372A",
"5  c #4F3A2C",
"6  c #563F2F",
"7  c #493C36",
"8  c #453B35",
"9  c #553F30",
"0  c #5F3935",
"q  c #653A35",
"w  c #564031",
"e  c #5B4334",
"r  c #574835",
"t  c #594F38",
"y  c #5D523A",
"u  c #5A5C3F",
"i  c #614534",
"p  c #634836",
"a  c #624E39",
"s  c #694C39",
"d  c #7F4635",
"f  c #744836",
"g  c #625A3F",
"h  c #65543D",
"j  c #70533F",
"k  c #565F40",
"l  c #5C554C",
"z  c #605E41",
"x  c #725540",
"c  c #7A5D46",
"v  c #745945",
"b  c #5B6544",
"n  c #516F48",
"m  c #576845",
"M  c #497D4D",
"N  c #507047",
"B  c #567049",
"V  c #5C714E",
"C  c #776349",
"Z  c #8C4B39",
"A  c #AA4C3A",
"S  c #CE4C3B",
"D  c #DC4A3B",
"F  c #E74C3C",
"G  c #E2503F",
"H  c #8B6E55",
"J  c #917459",
"K  c #BD6948",
"L  c #BC724E",
"P  c #B07A52",
"I  c #9D7F62",
"U  c #A47C66",
"Y  c #E85342",
"T  c #C06F4D",
"R  c #C77E5A",
"E  c #D4755C",
"W  c #EC6A53",
"Q  c #EF7F64",
"!  c #389757",
"~  c #349E5A",
"^  c #2EA85E",
"/  c #2AAD60",
"(  c #28B162",
")  c #2BBE69",
"_  c #2ABA67",
"`  c #32B569",
"'  c #36BC6A",
"]  c #38BA69",
"[  c #418952",
"{  c #46985A",
"}  c #7E945A",
"|  c #6A9160",
" . c #4FB567",
".. c #47BD79",
"X. c #2CC46D",
"o. c #2DC96F",
"O. c #31C56E",
"+. c #2ECC71",
"@. c #34CB72",
"#. c #39CD74",
"$. c #49C16F",
"%. c #42C772",
"&. c #47CE79",
"*. c #4ACF7A",
"=. c #52CC7A",
"-. c #58D07E",
";. c #968453",
":. c #A98559",
">. c #9F8164",
",. c #9D8B73",
"<. c #A88A6B",
"1. c #B79977",
"2. c #B49775",
"3. c #F18A6D",
"4. c #E99573",
"5. c #75D387",
"6. c #AC9C92",
"7. c #B8BE8D",
"8. c #ACBAA6",
"9. c #BEB2AA",
"0. c #C4A682",
"q. c #CEB08A",
"w. c #C2BF8F",
"e. c #D1B38C",
"r. c #DCBD95",
"t. c #8CD58E",
"y. c #93D690",
"u. c #99D692",
"i. c #B6D99B",
"p. c #AAD897",
"a. c #A2DDBB",
"s. c #CBC897",
"d. c #EEC097",
"f. c #E7C89E",
"g. c #E1C299",
"h. c #FBCA9F",
"j. c #DCDCA6",
"k. c #D0DCA3",
"l. c #F9CBA0",
"z. c #E2DBA6",
"x. c #F2D4A7",
"c. c #F6D7AA",
"v. c #FEDFB0",
"b. c #FFE0B1",
"n. c #BAE6CD",
"m. c #DFF7E9",
"M. c #DAF5E5",
"N. c white",
"B. c #F5FBF8",
/* pixels */
"@ X X X X X X @ @         X @ @ X X X X X @ @ X       X @ @ ",
"@ @ X X X X @ @ X . X X .   @ @ X X X X X @ o   . X .   @ @ ",
"o @ # # # # @ @ . # & = - = - : : > : = $ @ . X X X X X . @ ",
"o @ @ @ @ @ @ @ - y m M M M M M M M M b y 9 % X X X X X . @ ",
"@ @         X % a ~ ( ( ( ( ( ( ( ( ( ( ^ ! n w & X X X @ @ ",
"@ . . X X X   : V ` ( ( ( ( ( ( ( ( ( ( ( ( / [ r % X X @ @ ",
"X . X X X X X > 6.B.a.` ( ( ( ( ( ( ( ( ( ( ( ( [ 9 # @ @   ",
"@ X X X X X X 3 9.N.N.n.( ( ( ( ( ( ( ( ( ( ( ( ^ k $ @ @ X ",
"@ X X X $ 4 p z 8.m.m.M...( ( ( ( ( ( ( ( ( ( ( ( M % . @ @ ",
"@ @ X # u { O.+.+.+.+.+.+.+.o.o.o.X.) _ ( ( ( ( ( M * . o @ ",
"X @ @ % B ' O.O.+.+.+.+.+.+.+.+.+.+.+.+.+.o.X.) ( N $ X   @ ",
"@ @ X X 2 t u u b k.i.i.u.y.5.5.-.=.] ' ' O.O.O.' b # X X @ ",
"@ o   . X X # $ s b.b.b.b.r.r.b.b.x.C h g g z z g w X X @ @ ",
"@   X X X X   # s b.b.b.b.J c b.b.v.e.r.r.J s s s 9 X X @ o ",
"X . X X X X o p H b.b.b.b.H j b.b.b.b.b.b.c.s s s w @ @ @   ",
"@ X X X X X = <.b.q.2.0.x.g.r.b.b.b.b.b.b.x.s s s 5 X o @ @ ",
"@ @ X X X X & v >.s s s c r.b.b.b.b.b.b.b.r.J c j 2     @ @ ",
"@ @ X X X X @ : s s s s x 1.b.b.b.b.b.b.b.b.b.f.I - X . X @ ",
"X @ @ @ @ @ @ # e | 7.w.s.j.z.h.l.z.z.z.z.h.h.d.s $ X X   @ ",
"@ @         @ @ a O.@.#.#.$.P Y T %.*.&.#.L Y G i O X X X @ ",
"@ X   . . . X % m +.@. .} K F F :.p.j.j.t.;.F F d % X X @ @ ",
"@ . X X X X . = Z F F F F F F F 4.b.b.b.b.R F F Z & X @ @ X ",
"X X X X X X X & Z F F F F F F F Q b.b.b.b.3.F F Z = @ @ @   ",
"@ X X X X X X $ f F F F F F D 0 7 ,.b.b.b.W F F f O   X @ @ ",
"@ @ X X X X @ @ w A S S S S q , , , l U E S S A 2 X .   @ @ ",
"@ @ @ @ @ @ @ @ # 4 9 9 6 p 1 , , , , 8 p w 9 4 @ X X X X @ ",
"X @ @ @ @ @ @ @ . X X X X - e 7 < < 7 e : @ . X X X X X   @ ",
"@ @         o @ X X X X X X & > 2 2 ; + o @ o X X X X X @ @ ",
"@ X . X X .   @ @ X X X X X @ o   X X .   @ @ X X X X X @ @ ",
"o . X X X X . o @ @ @ @ @ @ @ . X X X X X X @ @ @ @ @ @ @ X "
};
