/* XPM */
static char *_a67690307374208c23dd67658e7f0c6CI9Ghy2q6QT0Lm1A[] = {
/* columns rows colors chars-per-pixel */
"30 30 256 2 ",
"   c #111010",
".  c #0C0B0B",
"X  c #0E0C0C",
"o  c #0A0909",
"O  c #060505",
"+  c #0F0E0E",
"@  c #121111",
"#  c #0B0A0A",
"$  c #0D0C0C",
"%  c #0E0D0D",
"&  c #080707",
"*  c #090808",
"=  c #090707",
"-  c #070606",
";  c #110F0F",
":  c #161414",
">  c #151312",
",  c #16110E",
"<  c #271E18",
"1  c #31251D",
"2  c #382A21",
"3  c #392B21",
"4  c #38291F",
"5  c #3A2C22",
"6  c #3C2E24",
"7  c #3E2F25",
"8  c #3F3026",
"9  c #3E2F26",
"0  c #382B23",
"q  c #2E241E",
"w  c #1D1816",
"e  c #0C0909",
"r  c #221C18",
"t  c #574232",
"y  c #5C543B",
"u  c #526E47",
"i  c #487E4D",
"p  c #428851",
"a  c #3F8D53",
"s  c #418A52",
"d  c #507148",
"f  c #5B563B",
"g  c #543E2F",
"h  c #1E1713",
"j  c #120D0B",
"k  c #5F4D39",
"l  c #3B9356",
"z  c #2DA95F",
"x  c #29B062",
"c  c #28B162",
"v  c #28B062",
"b  c #2CAA5F",
"n  c #3D9055",
"m  c #5E4D38",
"M  c #181311",
"N  c #281E17",
"B  c #536D46",
"V  c #2A201A",
"C  c #4F7449",
"Z  c #372B23",
"A  c #161515",
"S  c #342820",
"D  c #2FA65D",
"F  c #45834F",
"G  c #2E221A",
"H  c #30241C",
"J  c #4E7248",
"K  c #26AA5E",
"L  c #309C59",
"P  c #5D5D40",
"I  c #694C39",
"U  c #100F0F",
"Y  c #4E6F46",
"T  c #24A65B",
"R  c #378D51",
"E  c #5A6040",
"W  c #5B5E40",
"Q  c #5A5F40",
"!  c #388C51",
"~  c #281E19",
"^  c #5F593E",
"/  c #329454",
"(  c #2B211B",
")  c #110E0C",
"_  c #4E3A2C",
"`  c #886C52",
"'  c #543F31",
"]  c #171210",
"[  c #402F24",
"{  c #9D8164",
"}  c #D1B68E",
"|  c #402F25",
" . c #573F30",
".. c #C1A681",
"X. c #D7BD93",
"o. c #6C4F3C",
"O. c #574031",
"+. c #4A372A",
"@. c #A58A6A",
"#. c #BA9D7A",
"$. c #9F8164",
"%. c #725540",
"&. c #70523E",
"*. c #BFA27E",
"=. c #493629",
"-. c #1A1512",
";. c #503B2D",
":. c #8C7156",
">. c #E5C79D",
",. c #FFE0B1",
"<. c #FCDDAF",
"1. c #EBCCA1",
"2. c #D4B68F",
"3. c #C9AB86",
"4. c #C3A581",
"5. c #C7A985",
"6. c #D3B58E",
"7. c #E8CA9F",
"8. c #FADBAD",
"9. c #E0C299",
"0. c #8D7157",
"q. c #4C382B",
"w. c #130F0E",
"e. c #4F3A2D",
"r. c #CAAC87",
"t. c #B99B79",
"y. c #543D2E",
"u. c #0F0C0B",
"i. c #372A22",
"p. c #5C5F41",
"a. c #5EA165",
"s. c #F5C79C",
"d. c #FBCA9F",
"f. c #EBD5A4",
"g. c #E0DDA7",
"h. c #FAC39A",
"j. c #699A61",
"k. c #5B5F41",
"l. c #34271F",
"z. c #050404",
"x. c #18120E",
"c. c #575239",
"v. c #34BF6B",
"b. c #3ACD75",
"n. c #73AD6A",
"m. c #D46148",
"M. c #E85342",
"N. c #C26E4C",
"B. c #4CC06F",
"V. c #38CD74",
"C. c #E85140",
"Z. c #888D57",
"A. c #58533A",
"S. c #1F1915",
"D. c #2E211A",
"F. c #527A4C",
"G. c #69D283",
"H. c #D9DCA5",
"J. c #DCDDA6",
"K. c #EBBB91",
"L. c #EB6550",
"P. c #E64D3C",
"I. c #C66345",
"U. c #8F8955",
"Y. c #78995C",
"T. c #E74C3C",
"R. c #DA6E52",
"E. c #30241D",
"W. c #281F19",
"Q. c #5B754D",
"!. c #F5DFAE",
"~. c #EC8669",
"^. c #DF493A",
"/. c #E54B3C",
"(. c #E14A3A",
"). c #EB624D",
"_. c #281E18",
"`. c #1E1814",
"'. c #765C47",
"]. c #FCD5A8",
"[. c #DA6C56",
"{. c #CD4335",
"}. c #E24A3B",
"|. c #D34536",
" X c #765D47",
".X c #211B17",
"XX c #141110",
"oX c #5E4535",
"OX c #F8D9AC",
"+X c #F2A885",
"@X c #D34738",
"#X c #D94738",
"$X c #E64C3C",
"%X c #B84539",
"&X c #4F3633",
"*X c #423533",
"=X c #483633",
"-X c #964038",
";X c #F18C6F",
":X c #5D4434",
">X c #0C0908",
",X c #141313",
"<X c #131212",
"1X c #35281F",
"2X c #8D6F56",
"3X c #C7AE8B",
"4X c #CCA383",
"5X c #C55646",
"6X c #C3473A",
"7X c #9B4238",
"8X c #854939",
"9X c #774434",
"0X c #7D4839",
"qX c #443634",
"wX c gray20",
"eX c #353333",
"rX c #B18E72",
"tX c #33261D",
"yX c #171514",
"uX c #483529",
"iX c #4C3E36",
"pX c #343433",
"aX c #5A4537",
"sX c #231C17",
"dX c #241D19",
"fX c #343333",
"gX c #564337",
"hX c #423025",
"jX c #0E0C0B",
"kX c #1F1A17",
"lX c #604636",
"zX c #524136",
"xX c #423A34",
"cX c #3E3834",
"vX c #413934",
"bX c #513C2E",
"nX c #0B0808",
"mX c #131111",
"MX c #553F30",
"NX c #574337",
"BX c #453B35",
"VX c #3F3934",
"CX c #5E4534",
"ZX c #16120F",
"AX c #31241C",
"SX c #433126",
"DX c #453227",
"FX c #433227",
"GX c #2C221B",
"HX c #110E0D",
"JX c #0E0B09",
"KX c #251C16",
"LX c #3A2A20",
"PX c #413024",
"IX c #362921",
"UX c #191513",
/* pixels */
"  . . X X . o     O O O O +   @ # $ X $ o @   o O O O o   @ ",
"  @ # . . # @   % & * * = -     o . . . +   ; - = * = -     ",
";   : : : :   > , < 1 2 3 4 5 6 7 8 9 0 q w e * # . # o =   ",
";           r t y u i p a a a a a a s i d f g h $ X $ o &   ",
"    O - - j k l z x c c c c c c c c c c v b n m M X $ # @   ",
"  = = o o N B c c c c c c c c c c c c c c c c B V . . .     ",
"+ = # . . 1 C c c c c c c c c c c c c c c c c C Z A A @   - ",
"@ * . X X 1 C c c c c c c c c c c c c c c c c C S         $ ",
"  + . $ X 1 C c c c c c c D F F D c c c c c c C G - - &     ",
"    o . . H J K K K K K L P I I P L K K K K K J H o o = U   ",
"+         S Y T T T T T R E W W Q ! T T T T T Y 1 . . o -   ",
"@   . . . ~ ^ / / / / / / / / / / / / / / / / ^ ( X $ # o   ",
"  U - & ) _ ` I I I I I I I I I I I I I I I I ` ' ] $ o @   ",
"  - * o [ { } I I I I I I I I I I I I I I I I } { | # +   ; ",
"% = # $  ...X.o.I I I I I I I I I I I I I I o.X...O.      - ",
"@ o . X +.@.X.#.$.%.I I I I I I I I I I &.$.*.X.@.=.. U     ",
"  @ # $ -.;.:.>.,.<.1.2.3.4.4.4.4.5.6.7.8.,.9.0.q., - -     ",
"    o o # w.e.r.,.,.,.,.,.,.,.,.,.,.,.,.,.,.t.y.u.# o = %   ",
".         i.p.a.s.d.d.f.g.g.g.g.g.g.f.d.d.h.j.k.l.$ . o -   ",
"@   z.z.x.c.v.b.n.m.M.N.B.V.V.V.V.B.N.M.M.C.Z.v.A.S.X # %   ",
"  X - = D.F.G.H.J.K.L.P.I.U.Y.Y.U.I.P.T.T.T.R.G.F.E.. o @   ",
"  & o . W.Q.!.,.,.,.~.^./.T.T.T.T./.^.^.(.T.).!.Q._.o     $ ",
"+ * . $ `.'.,.,.,.].[.{.}.T.T.T.T.}.{.{.|.T.L.,. X.X      - ",
"  o . X XXoXOX,.,.+X@X#X$XT.T.T.T.%X&X*X=X-X;XOX:X>Xz.$   ,X",
"  <X# $ $ 1X2X3X4X5X6X6X7X8X9X9X0XqXwXwXwXeXrX2XtX= & -     ",
"    ,X,X,XyXuXiXwXwXwXwXpXaXsXdXaXfXwXwXwXwXgXhXjX. o * #   ",
"$           kXlXzXxXcXvXgXbXnXmXMXNXBXcXVXzXCXZX$ X $ o -   ",
"    z.O O O ; w AXSXDXFXGXHX@   JXKXLXPXDXIXUX# X % X # @   ",
"  o & * * = -   @ o . $ . %   U - * * = -     o . $ . o     ",
"; & o . . # = U   <X<X<X@ @   & o . . # * o   <X@ <X@ @   * "
};
