/* XPM */
static char *a5fd57f7a2c64a05f152e154f63508cfscvmFXKjZe4cCLFe[] = {
/* columns rows colors chars-per-pixel */
"60 60 132 2 ",
"   c black",
".  c #010101",
"X  c #656565",
"o  c #D8D8D8",
"O  c gainsboro",
"+  c #B9B9B9",
"@  c gray11",
"#  c #CBCBCB",
"$  c gray68",
"%  c #8E8E8E",
"&  c #020202",
"*  c DimGray",
"=  c gray97",
"-  c white",
";  c #2C2C2C",
":  c gray92",
">  c gray81",
",  c gray13",
"<  c gray75",
"1  c #A4A4A4",
"2  c gray26",
"3  c gray87",
"4  c gray86",
"5  c #3C3C3C",
"6  c gray1",
"7  c gray89",
"8  c gray29",
"9  c #6A6A6A",
"0  c #DFDFDF",
"q  c #DADADA",
"w  c #CECECE",
"e  c #202020",
"r  c #4B4B4B",
"t  c #F6F6F6",
"y  c gray95",
"u  c gray19",
"i  c #232323",
"p  c #343434",
"a  c #EEEEEE",
"s  c #2F2F2F",
"d  c #101010",
"f  c #8B8B8B",
"g  c #111111",
"h  c gray69",
"j  c #A5A5A5",
"k  c #0E0E0E",
"l  c gray42",
"z  c gray57",
"x  c gray5",
"c  c gray31",
"v  c #F3F3F3",
"b  c #D7D7D7",
"n  c #989898",
"m  c #929292",
"M  c #4E4E4E",
"N  c #AFAFAF",
"B  c gray17",
"V  c gray34",
"C  c #FBFBFB",
"Z  c #848484",
"A  c #5B5B5B",
"S  c gray67",
"D  c #FEFEFE",
"F  c #939393",
"G  c #1B1B1B",
"H  c #909090",
"J  c gray36",
"K  c #FDFDFD",
"L  c #3E3E3E",
"P  c gray16",
"I  c gray50",
"U  c #F8F8F8",
"Y  c gray48",
"T  c #DDDDDD",
"R  c #2A2A2A",
"E  c gray6",
"W  c #191919",
"Q  c gray23",
"!  c #E7E7E7",
"~  c gray84",
"^  c gray91",
"/  c #E6E6E6",
"(  c #5F5F5F",
")  c #C1C1C1",
"_  c gray59",
"`  c gray15",
"'  c gray90",
"]  c gray2",
"[  c #1D1D1D",
"{  c #0B0B0B",
"}  c #7C7C7C",
"|  c #838383",
" . c gray7",
".. c #131313",
"X. c #070707",
"o. c #060606",
"O. c #161616",
"+. c gray4",
"@. c #040404",
"#. c #777777",
"$. c #323232",
"%. c gray47",
"&. c #3A3A3A",
"*. c #868686",
"=. c gray78",
"-. c #313131",
";. c #C5C5C5",
":. c gray32",
">. c #7E7E7E",
",. c gray37",
"<. c gray64",
"1. c #464646",
"2. c gray55",
"3. c gray21",
"4. c gray20",
"5. c gray76",
"6. c #9D9D9D",
"7. c #9B9B9B",
"8. c #CDCDCD",
"9. c gray72",
"0. c #515151",
"q. c #AEAEAE",
"w. c #C0C0C0",
"e. c #7B7B7B",
"r. c #888888",
"t. c gray60",
"y. c #979797",
"u. c gray39",
"i. c #BCBCBC",
"p. c #B1B1B1",
"a. c #727272",
"s. c gray56",
/* pixels */
"                                                                                                                        ",
"                                                                                                                        ",
"                                                                                                                        ",
"                                                                                                                        ",
"                                                                                                                        ",
"                                                                                                                        ",
"                                                                                                                        ",
"                                                                                                                        ",
"                                                                                                                        ",
"                                                                                                                        ",
"                                                                                                                        ",
"                                                                                                                        ",
"                                                                                                                        ",
"                                                                                                                        ",
"                                      .                                                                                 ",
"                                    . X o O O O O + @     # O O O O $ + O O O O O %                                     ",
"                                  & * = - - - - o ;       : - - - > , < - - - - - 1                                     ",
"                                & 2 3 - - - - 4 5 6       : - - 7 8 . < - - - - - 1                                     ",
"                              . 9 0 - - - - q ;           : - w 8 .   < - - - - - 1                                     ",
"                            & 9 = - - - - q ;             : w e .     < - - - - - 1                                     ",
"                            r t - - - - y u               o i         < - - - - - 1                                     ",
"                        & p a - - - - q u                 s         d > - - - - - f                                     ",
"                      & 9 a - - - - q ;                           g h - - - - - j k                                     ",
"                    & l t - - - - 4 ;                           d h - - - - - z x                                       ",
"                  . c v - - - - b 5                           g n - - - - - m .                                         ",
"                & M 0 - - - - q ; 6                         g N = - - - - j x                                           ",
"              & 9 y - - - - q B                           d h - - - - - j k                                             ",
"              V = - - - - C Z A A A A A A A A A A A ,     S - - - - D F x       6 G                                     ",
"              H - - - - - D - - - - - - - - - - - - J     : - - - - K L         P I                                     ",
"              H - - - - - - - - - - - - - - - - - - J     : - - - - K L     . s o 1                                     ",
"              H - - - - - - - - - - - - - - - - - - J     : - - - - K L   . 8 v - 1                                     ",
"              H - - - - - - - - - - - - - - - - - - J     : - - - - K L . 8 U - - 1                                     ",
"              Y o o o o o o o o o o o T C - - - - - J     : - - - - K L R o - - - 1                                     ",
"              E W W W W W W W W W W W Q ! - - - - - J     ~ ^ ^ ^ ^ / ( ) ^ ^ ^ ^ _                                     ",
"                                      ` / - - - - - J     ` P P P P P i P P P P P G                                     ",
"                                      ` / - - - - - J                                                                   ",
"                                      ` / - - - - - J                                                                   ",
"                                      ` / - - - - - J                                                                   ",
"                                      ` ' - - - - - J     .                                                             ",
"                                      ] G [ [ [ [ [ {     } .                                                           ",
"                                                          |     G g [ k G  ...u X.R o.@ O.L s +.X.B @.                  ",
"                                                          |     #.5 Z $.%.&.*.=.-.;.:.>.,.$ <.X 1.) e                   ",
"                                                          |     2.3._ 4.1 L 5.) X 6.7.8.( #.| *.1 9.0.                  ",
"                                                          | .   j f F q.w.e.r.t.y.e.c 7 u.i.p.a.<.z s.                  ",
"                                                          | . .     . +.6   . .             . . . .                     ",
"                                                          3.                                                            ",
"                                                                                                                        ",
"                                                                                                                        ",
"                                                                                                                        ",
"                                                                                                                        ",
"                                                                                                                        ",
"                                                                                                                        ",
"                                                                                                                        ",
"                                                                                                                        ",
"                                                                                                                        ",
"                                                                                                                        ",
"                                                                                                                        ",
"                                                                                                                        ",
"                                                                                                                        ",
"                                                                                                                        "
};
