/* XPM */
static char *f85a6c8114a74b09b72594b7f48d941eH5TfN1EywiGAVour[] = {
/* columns rows colors chars-per-pixel */
"30 30 151 2 ",
"   c None",
".  c #8D6C9F",
"X  c #8E6D9F",
"o  c #8F6D9F",
"O  c #8F6E9F",
"+  c #906D9F",
"@  c #906E9E",
"#  c #906F9E",
"$  c #916F9E",
"%  c #906E9F",
"&  c #916E9F",
"*  c #906F9F",
"=  c #916F9F",
"-  c #926F9F",
";  c #92709E",
":  c #93709E",
">  c #92709F",
",  c #93709F",
"<  c #93719F",
"1  c #96739F",
"2  c #9A759F",
"3  c #9B769F",
"4  c #9B779F",
"5  c #9D779E",
"6  c #9C779F",
"7  c #9E799F",
"8  c #A17B9E",
"9  c #906EA0",
"0  c #906FA0",
"q  c #916FA0",
"w  c #926FA0",
"e  c #9170A0",
"r  c #9270A0",
"t  c #9271A0",
"y  c #9372A2",
"u  c #9573A0",
"i  c #9472A1",
"p  c #9673A1",
"a  c #9573A2",
"s  c #9673A2",
"d  c #9774A0",
"f  c #9674A2",
"g  c #9775A2",
"h  c #9874A1",
"j  c #9A76A0",
"k  c #9A77A1",
"l  c #9975A3",
"z  c #9976A2",
"x  c #9977A3",
"c  c #9A77A2",
"v  c #9E7AA1",
"b  c #9E7BA1",
"n  c #9E7AA2",
"m  c #A07AA0",
"M  c #A27BA0",
"N  c #A17DA1",
"B  c #A37CA0",
"V  c #A27EA2",
"C  c #A57FA0",
"Z  c #A07DA5",
"A  c #A37FA4",
"S  c #A27FA6",
"D  c #A47FA5",
"F  c #A87FA0",
"G  c #B2879D",
"H  c #B5899D",
"J  c #BA8D9C",
"K  c #BB8D9D",
"L  c #BC8D9D",
"P  c #BD8E9C",
"I  c #BC8E9D",
"U  c #BE8E9C",
"Y  c #BF909D",
"T  c #A580A2",
"R  c #A781A2",
"E  c #A782A5",
"W  c #A682A7",
"Q  c #AB82A0",
"!  c #AB86A2",
"~  c #AF85A1",
"^  c #AC85A2",
"/  c #AC86A3",
"(  c #AD87A3",
")  c #A883A6",
"_  c #AF88A3",
"`  c #A884A9",
"'  c #AE89AA",
"]  c #B288A1",
"[  c #B28AA3",
"{  c #B38BA3",
"}  c #B589A1",
"|  c #B58AA0",
" . c #B38CA4",
".. c #B48CA4",
"X. c #B58DA4",
"o. c #B78EA4",
"O. c #B78FA4",
"+. c #B88CA1",
"@. c #B98DA1",
"#. c #BB8EA0",
"$. c #B08BAB",
"%. c #B38EA9",
"&. c #B18CAB",
"*. c #B18DAB",
"=. c #BD91A0",
"-. c #B890A5",
";. c #B990A5",
":. c #BB91A5",
">. c #BA92A5",
",. c #BC93A4",
"<. c #BD94A5",
"1. c #BF95A5",
"2. c #B590AD",
"3. c #B791AD",
"4. c #BD95A9",
"5. c #BE97AB",
"6. c #C0909C",
"7. c #C1929C",
"8. c #C2929C",
"9. c #C2939C",
"0. c #C3939C",
"q. c #C4939C",
"w. c #C394A0",
"e. c #C797A1",
"r. c #C197A6",
"t. c #C399A6",
"y. c #C59AA6",
"u. c #C69CA6",
"i. c #C79CA6",
"p. c #C898A1",
"a. c #C899A1",
"s. c #C99EA6",
"d. c #C199AA",
"f. c #C39AAD",
"g. c #CCA0A7",
"h. c #CDA0A7",
"j. c #CCA1A7",
"k. c #CDA1A7",
"l. c #D1A6AD",
"z. c #D2A6AD",
"x. c #D3A8AE",
"c. c #D3A8AF",
"v. c #CFA7B2",
"b. c #CEA6B5",
"n. c #D5AAB1",
"m. c #D6ACB3",
"M. c #D6ACB4",
"N. c #D7AEB7",
"B. c #D8AEB5",
"V. c #D9B0B8",
"C. c #DAB1B9",
/* pixels */
"                                                            ",
"                                                            ",
"  p l l l t p l l l l l l l t t l l l l l l l p t l l l l   ",
"  w m.B.B.d v.B.B.B.B.B.B.B.%.%.B.B.B.B.B.B.B.v.d B.B.N.w   ",
"  = k.k.k.d i.k.k.k.k.k.k.k._ _ k.k.k.k.k.k.k.i.d k.k.k.=   ",
"  = k.k.k.d i.k.k.k.k.k.k.k._ _ k.k.k.k.k.k.k.i.d k.k.k.=   ",
"  = k.k.k.d i.k.k.k.k.k.k.k._ _ k.k.k.k.k.k.k.i.d k.k.k.=   ",
"  = ^ _ ^ O R _ _ _ _ _ _ _ l l _ _ _ _ _ _ _ R O ^ _ ! =   ",
"  = 3.3.3.3.3.3.3.l E 3.3.3.3.3.3.3.` d 3.3.3.3.3.3.3.3.=   ",
"  w l.x.x.x.x.x.x.E 4.x.x.x.x.x.x.x.d.Z x.x.x.x.x.x.x.l.w   ",
"  = k.k.k.k.k.k.k.R ;.k.k.k.k.k.k.k.1.V k.k.k.k.k.k.k.k.=   ",
"  = k.k.k.k.k.k.k.R ;.k.k.k.k.k.k.k.1.V k.k.k.k.k.k.k.k.=   ",
"  = k.k.k.k.k.k.k.R ;.k.k.k.k.k.k.k.1.V k.k.k.k.k.k.k.k.=   ",
"  = k.k.k.k.k.k.k.V o.k.k.k.k.k.k.k.;.n k.k.k.k.k.k.k.k.=   ",
"  t w t t t t t t O O t t t t t t t O O t t t t t t t w t   ",
"  = N.C.C.p b.C.C.C.C.C.C.C.%.%.C.C.C.C.C.C.C.b.d C.C.N.=   ",
"  = k.k.k.d i.k.k.k.k.k.k.k._ _ k.k.k.k.k.k.k.i.d k.k.k.=   ",
"  = k.k.k.d i.k.k.k.k.k.k.k._ _ k.k.k.k.k.k.k.i.d k.k.k.=   ",
"  = k.k.k.d i.k.k.k.k.k.k.k._ _ k.k.k.k.k.k.k.i.d k.k.k.=   ",
"  = k.k.k.d i.k.k.k.k.k.k.k._ _ k.k.k.k.k.k.k.i.d k.k.k.=   ",
"  O {  .{ w ^  . . . . . . .n n  . . . . . . .^ = {  .{ O   ",
"  t ' %.%.%.%.%.%.p Z %.%.%.%.%.%.%.Z t $.%.%.%.%.%.%.' t   ",
"  w x.n.n.n.n.n.n.) 4.n.n.n.n.n.n.n.f.D n.n.n.n.n.n.n.x.w   ",
"  = s.o.k.o.k.1.r.R ;.i.;.k.o.k.,.y.1.V k.o.k.1.t.s.;.k.=   ",
"  = =.6 p.1 w.Q ^ V | +.M p.= p.C | +.M p.> e.F { +.7 p.=   ",
"  > 0.K q.K q.Y 0.8 G 0.I q.K q.I 0.H 6 q.K q.I 0.0.I q.>   ",
"  = 2 2 2 2 2 2 2 = > 2 2 2 2 2 2 2 > = 2 2 2 2 2 2 2 2 >   ",
"                                                            ",
"                                                            ",
"                                                            "
};
