/* XPM */
static char *aa34dd12993648b0b23cd02d30f89cf4D4yTBn1o4w7HdYW7[] = {
/* columns rows colors chars-per-pixel */
"30 30 23 1 ",
"  c None",
". c #A36C4C",
"X c #A46C4C",
"o c #A76F4E",
"O c #A76F4F",
"+ c #A7704F",
"@ c #A97251",
"# c #AB7453",
"$ c #AF7957",
"% c #B07857",
"& c #B17857",
"* c #B07958",
"= c #B27959",
"- c #B27B5A",
"; c #B47D5C",
": c #B8805F",
"> c #B9815F",
", c #C68D6A",
"< c #CD936F",
"1 c #D09773",
"2 c #D69D77",
"3 c #E7AE88",
"4 c #FFC49C",
/* pixels */
"                              ",
"                              ",
"                              ",
".%%%%%%%%%%%%%%O%%%%%%%%%%%%%.",
"%44444444444444#4444444444444%",
"%44444444444444#4444444444444%",
"%44444444444444#4444444444444%",
"%44444444444444#4444444444444%",
"%44444444444444#4444444444444%",
"%44444444444444#4444444444444%",
"O:::::::=%%%%%%#%%%%%%=::::::O",
"#3333333;3333333333332,333333#",
"%4444444:44444444444431444444%",
"%4444444:44444444444431444444%",
"%4444444:44444444444431444444%",
"%4444444:44444444444431444444%",
"%4444444:44444444444431444444%",
"%4444444:44444444444431444444%",
"O=======$======+======%======O",
"%44444444444444#4444444444444%",
"%44444444444444#4444444444444%",
"%44444444444444#4444444444444%",
"%44444444444444#4444444444444%",
"%44444444444444#4444444444444%",
"%44444444444444#4444444444444%",
"+<<<<<<<<<<<<<<@<<<<<<<<<<<<<+",
"                              ",
"                              ",
"                              ",
"                              "
};
