/* XPM */
static char *b6d465483c8d4015e2ab6a8a56e92434deU9dkqL8cVzozBX[] = {
/* columns rows colors chars-per-pixel */
"30 30 157 2 ",
"   c #060505",
".  c #090707",
"X  c #0A0807",
"o  c #0C0B0B",
"O  c #110F0E",
"+  c #13100E",
"@  c #1C150D",
"#  c #1E1B0E",
"$  c #121111",
"%  c #181513",
"&  c #1E1A13",
"*  c #1C1B1B",
"=  c #231D0D",
"-  c #2B1E0C",
";  c #241C13",
":  c #28220D",
">  c #252115",
",  c #2A2012",
"<  c #312310",
"1  c #3B2C17",
"2  c #3D2D18",
"3  c #3A3413",
"4  c #252424",
"5  c #282727",
"6  c #2B2B2B",
"7  c #37322B",
"8  c #38332C",
"9  c #343434",
"0  c #3C3C3C",
"q  c #412A24",
"w  c #4C3826",
"e  c #57431F",
"r  c #5F4E1D",
"t  c #58501F",
"y  c #62471F",
"u  c #6E4F1A",
"i  c #6B5C1B",
"p  c #73681B",
"a  c #7D7118",
"s  c #5F4524",
"d  c #5E4B27",
"f  c #5F5023",
"g  c #5F4630",
"h  c #55513D",
"j  c #5B563C",
"k  c #694D26",
"l  c #675A23",
"z  c #7B5622",
"x  c #78582A",
"c  c #624536",
"v  c #665F31",
"b  c #625B3D",
"n  c #7A6E27",
"m  c #7A7124",
"M  c #7B6831",
"N  c #716B39",
"B  c #424242",
"V  c #484742",
"C  c #4F4A41",
"Z  c #534D42",
"A  c #5D5240",
"S  c #6D4B40",
"D  c #635641",
"F  c #665841",
"G  c #6F5E45",
"H  c #775644",
"J  c #795547",
"K  c #7D5C45",
"L  c #795548",
"P  c #7E5948",
"I  c #776345",
"U  c #7E6043",
"Y  c #865A1B",
"T  c #827717",
"R  c #817618",
"E  c #857A18",
"W  c #8A7C1B",
"Q  c #917F1E",
"!  c #815F2D",
"~  c #8A632A",
"^  c #916E2C",
"/  c #8E7325",
"(  c #8F7D24",
")  c #81762A",
"_  c #846B3E",
"`  c #916535",
"'  c #867137",
"]  c #8B7837",
"[  c #87703B",
"{  c #88733A",
"}  c #997C3C",
"|  c #A97739",
" . c #A67939",
".. c #AE7E39",
"X. c #B17F36",
"o. c #815B48",
"O. c #845D44",
"+. c #816540",
"@. c #866A41",
"#. c #896B44",
"$. c #876049",
"%. c #8D6449",
"&. c #8B7046",
"*. c #9E704A",
"=. c #A7774A",
"-. c #AE7C4A",
";. c #B37F4A",
":. c #8C841C",
">. c #93801E",
",. c #918C1E",
"<. c #968E2C",
"1. c #9B8422",
"2. c #969321",
"3. c #999622",
"4. c #9D9C24",
"5. c #9A9329",
"6. c #8B8332",
"7. c #928630",
"8. c #968930",
"9. c #A88A27",
"0. c #A19527",
"q. c #A19D26",
"w. c #B4912C",
"e. c #BA942F",
"r. c #C59933",
"t. c #CB9B37",
"y. c #CA923F",
"u. c #CD9E38",
"i. c #EA9A25",
"p. c #E59A2A",
"a. c #EA9F32",
"s. c #DCA53E",
"d. c #F2A534",
"f. c #AE8549",
"g. c #B4804B",
"h. c #B68A49",
"j. c #BB8D49",
"k. c #C48C4B",
"l. c #C2914A",
"z. c #D29543",
"x. c #D29842",
"c. c #D2964C",
"v. c #D39C4B",
"b. c #DC9D4C",
"n. c #E5A446",
"m. c #E9AA44",
"M. c #E9A74C",
"N. c #EBA94B",
"B. c #F2AE4C",
"V. c #F2B048",
"C. c #F6B14A",
"Z. c #F7B14D",
"A. c #FBB44C",
"S. c #FFB74D",
"D. c #FEB64C",
"F. c #FDB64D",
"G. c #FDB64D",
/* pixels */
"$ o o o o o o $ $         o $ $ o o o o o $ $ o       o $ $ ",
"$ $ o o o o $ $ o . o o o o $ % O $ o o o $ O   . o .   $ $ ",
"O $ % % % % $ $ . o % 4 9 0 B B B B 5 % $ $ . o o o o o . $ ",
"O $ $ $ $ $ $ $ O 5 0 B B B B B B B 9 * $ $ . o o o o o . $ ",
"$ $         O * 6 B B B B B B B B B B 9 5 * % o o o o o $ $ ",
"$ . . o o o O 9 B B B B B B B B B B B B B 0 5 $ o o o o $ $ ",
"o . o o o O 5 B B B B B B B B B B B B B B B B 5 * % % $ $   ",
"$ o o o o * 0 B B B B B B B B B B B B B B B B 0 * $ $ $ $ o ",
"$ o o o $ 6 B B B B B B B B B B B B V V B B B B 6 o   . $ $ ",
"$ $ o o $ 0 B B B B B B B B B V h b N N j B B B 0 $ o . O $ ",
"o $ $ $ * B B B B B B B B Z j v ) 5.q.q.6.b B B B * o o   $ ",
"$ $ o o 4 B B B B B Z G #.} ( E :.2.4.4.q.6.b V B 4 o o o $ ",
"$ O   o 5 B B Z G &.f.v.B.u.W T :.3.4.4.4.5._ F B 5 O o $ $ ",
"$   o o 5 V I f.v.B.S.S.C.e.T T :.3.4.4.4.7.K @.C 5 o o $ O ",
"o . o + 7 Z h.S.S.S.S.S.s.1.T E ,.4.4.4.4.] K #.Z 8 % $ $   ",
"$ o o @ ~ D j.S.S.S.C.m.w.E T :.3.4.4.3.5._ L #.A ~ @ O $ $ ",
"$ $ o < p...l.S.A.z.` ^ W T E ,.4.4.m l M K L #. .p.- . $ $ ",
"$ $ o - i.d.M.S.B.| q e a E :.3.4.2.f q c J L -.a.i.- X o $ ",
"o $ $ & Y a.S.V.t./ r i R :.3.4.4.4.n g S J %.b.p.Y @ o   $ ",
"$ $     @ u r.9.>.R a R :.3.4.4.4.5.' H J o.k.Z.z ; O o o $ ",
"$ o   . X : Q T T T E ,.3.4.4.4.<.{ K L P ;.N.B.1 o o o $ $ ",
"$ . o o o = W T E :.2.3.4.4.4.7._ L L P -.M.S.y., o o $ $ o ",
"O o o o o # p ,.2.3.4.4.4.<.{ K J L o.g.M.S.S.! & $ $ $ $   ",
"$ o o o o o 3 0.4.4.4.7.[ U L L L %.k.B.S.S.x.2       o $ $ ",
"$ $ o o o o & t 8.{ +.K L L L P =.b.Z.S.S.N.k O . . .   $ $ ",
"$ $ $ $ $ $ $ > d K L L L P *.c.B.S.S.S.N.x @ o o o o o o $ ",
"o $ $ $ $ $ $ $ @ w O.$.-.b.B.A.S.S.S.y.s & X o o o o o   $ ",
"$ $         O $ o O ; s ..n.A.A.n.X.y = O $ O o o o o o $ $ ",
"$ o . o o .   $ $ o o O + % ; ; O O o X   $ $ o o o o o $ $ ",
"O . o o o o . O $ $ $ $ $ $ $ . o o o o o o $ $ $ $ $ $ $ o "
};
