/* XPM */
static char *_f17208c0d934d1cfb36b972a10d3337ire5JLh6vwqYAq15[] = {
/* columns rows colors chars-per-pixel */
"30 30 40 1 ",
"  c #111010",
". c #0C0B0B",
"X c #0E0C0C",
"o c #0A0909",
"O c #060505",
"+ c #0F0E0E",
"@ c #121111",
"# c #0B0A0A",
"$ c #0D0C0C",
"% c #0E0D0D",
"& c #080707",
"* c #090808",
"= c #090707",
"- c #070606",
"; c #110F0F",
": c #161414",
"> c #141313",
", c #100F0F",
"< c #151414",
"1 c #161515",
"2 c #131212",
"3 c #5B5A5A",
"4 c gray",
"5 c white",
"6 c #C0C0C0",
"7 c gray37",
"8 c #8F8E8E",
"9 c #8A8989",
"0 c #555454",
"q c #4E4D4D",
"w c #C3C3C3",
"e c gray76",
"r c #F1F1F1",
"t c #504F4F",
"y c #8E8E8E",
"u c gray55",
"i c #050404",
"p c #5C5B5B",
"a c #BFBEBE",
"s c #565656",
/* pixels */
" ..XX.o  OOOO+ @#$X$o@ oOOOo @",
" @#..#@ %&**=-  o...+ ;-=*=-  ",
"; ::::  &o..#=$ >:::  =*#.#o= ",
";       =.$X$o$       =#$X$o& ",
"  O--O+ +.XX$o@ O---* @#$X$#@ ",
" ==oo*- @o..., $&oo*&  .....  ",
"+=#...*. <111  &o...*& 2111@ -",
"@*.XX.o2       *.X%$o$       $",
" +.$X.#  O---. >#$X.o  &---&  ",
"  o..o@ #=oo*-  o#.o> +&ooo=, ",
"+       &o..345567    -o...o- ",
"@ ...#  =.X85555559#  o#$X$#o ",
" ,-&&-. @.055555555q- @#$X$o@ ",
" -*o#o-  ow55555555e=, %#.#+ ;",
"%=#$$.**  r55555555ro-       -",
"@o.X%.o@ Xr55555555ro  +...,  ",
" @#$$.+ ;-e55555555wo  --&--  ",
"  oo#o@ =*t55555555t@ X=o#o=% ",
".       =#$y555555u   -o.$.o- ",
"@ iiii  *.X%pa554sii, X#X%X#% ",
" X-==&* @#$$..  -==&- @o.$.o@ ",
" &o..o&  .o#o@ =o#.o*$ ;o#o  $",
"+*.$X.*o       =#$X.o&       -",
" o.X%.o  -iii; $.X%$o> .iii$ >",
" 2#$$.@ ,-==&&  o.$.#  -&=&-  ",
"  >>>>  -o#.o=+ >>>>@ #*#.o*# ",
"$       =#$X.o=       &#$X$o- ",
"  iOOO; o.X%$o@ OOOOX ,#X%X#@ ",
" o&**=- @o.$.% ,-**=-  o.$.o  ",
";&o..#=, 222@@ &o..#*o 2@2@@ *"
};
