/* XPM */
static char *f7034665041540e9bd5d59307d6f8b98r5PnXDqEcKeQvNvW[] = {
/* columns rows colors chars-per-pixel */
"30 30 29 1 ",
"  c gray10",
". c gray7",
"X c gray8",
"o c #0E0E0E",
"O c gray3",
"+ c gray9",
"@ c #1B1B1B",
"# c #101010",
"$ c #131313",
"% c gray6",
"& c gray11",
"* c #151515",
"= c #0B0B0B",
"- c gray5",
"; c #0C0C0C",
": c gray4",
"> c #111111",
", c #161616",
"< c #191919",
"1 c gray13",
"2 c #1E1E1E",
"3 c #090909",
"4 c #181818",
"5 c #202020",
"6 c #222222",
"7 c #1D1D1D",
"8 c gray12",
"9 c #070707",
"0 c #060606",
/* pixels */
" ..XX.o  OOOO+ @#$X$%@ oOOO% @",
" &#..#& *=--;:  o>.>, <:;-;:  ",
"< 1111  =%>>#;$ 2111  ;-#>#o; ",
"<       ;>$X$%$       ;#$X$%= ",
"  O::O+ +>XX$%@ O3:3- @#$X$#@ ",
" ;;oo-: @%..>4 $=oo-=  .>.>.  ",
"+;#..>-. 5666  =o..>-= 7666& :",
"@-.XX.o7       ->X*$%$       $",
" ,>$X.#  O3:3. 2#$X.%  =3:3=  ",
"  %>>%@ #;oo-:  %#>%8 +=ooo;4 ",
",       =%..>-%       :o>.>o: ",
"& >>>#  ;>XX$%4 X>>#  %#$X$#% ",
" 43==:. @>$X.%  3==:3 &#$X$%@ ",
" :-%#o:  %>>%7 o-%#o;4 *#>#+ <",
"*;#$$>--       =%.$>o:       :",
"@o.X*.o& X...  %>X*$%  +...4  ",
" @#$$>, <3==:o &%$$.o  3:=:3  ",
"  o%#o@ ;-%#o=< +%#o& X;%#%;* ",
".       ;#$$>o=       :%.$.%: ",
"@ 9990  ->X*$%@ -9994 X#X*X#* ",
" X:;;=- &#$$>.  :;;=3 @%.$.%@ ",
" =o>>%=  .%#o& ;o#>%-$ <%#%  $",
",->$X>-o       ;#$X.%=       :",
" %.X*.o  :990< $>X*$%2 .999$ 2",
" 7#$$>@ 4:;;==  %.$>#  3=;=3  ",
"  2888  :o#>%;+ 2888@ #-#>%-# ",
"$       ;#$X.o;       =#$X$%: ",
"  9OOO< %>X*$%& OOOOX 4#X*X#@ ",
" %=--;: @%.$>* 4:--;:  %.$>%  ",
"<=%..#;4 777&@ =o>.#-o 7&7&& -"
};
