/* XPM */
static char *_79135b6a8034bfda529c13e7fe89fd6nKcu2kZCyvoZvd1q[] = {
/* columns rows colors chars-per-pixel */
"30 30 3 1 ",
"  c None",
". c #788B9C",
"X c #B0C1D4",
/* pixels */
"                              ",
"                              ",
"  ..........................  ",
"  .XXXX.XXXXXXXXX.XXXXXXXXX.  ",
"  .XXXX.XXXXXXXXX.XXXXXXXXX.  ",
"  .XXXX.XXXXXXXXX.XXXXXXXXX.  ",
"  .XXXX.XXXXXXXXX.XXXXXXXXX.  ",
"  ..........................  ",
"  .XXXXXXXXX.XXXXXXXXX.XXXX.  ",
"  .XXXXXXXXX.XXXXXXXXX.XXXX.  ",
"  .XXXXXXXXX.XXXXXXXXX.XXXX.  ",
"  .XXXXXXXXX.XXXXXXXXX.XXXX.  ",
"  ..........................  ",
"  .XXXX.XXXXXXXXX.XXXXXXXXX.  ",
"  .XXXX.XXXXXXXXX.XXXXXXXXX.  ",
"  .XXXX.XXXXXXXXX.XXXXXXXXX.  ",
"  .XXXX.XXXXXXXXX.XXXXXXXXX.  ",
"  ..........................  ",
"  .XXXXXXXXX.XXXXXXXXX.XXXX.  ",
"  .XXXXXXXXX.XXXXXXXXX.XXXX.  ",
"  .XXXXXXXXX.XXXXXXXXX.XXXX.  ",
"  .XXXXXXXXX.XXXXXXXXX.XXXX.  ",
"  ..........................  ",
"  .XXXX.XXXXXXXXX.XXXXXXXXX.  ",
"  .XXXX.XXXXXXXXX.XXXXXXXXX.  ",
"  .XXXX.XXXXXXXXX.XXXXXXXXX.  ",
"  .XXXX.XXXXXXXXX.XXXXXXXXX.  ",
"  ..........................  ",
"                              ",
"                              "
};
