/* XPM */
static char *b184cb75634c40abdae9a4ed725370abl6h5ZxAvi04VxNWY[] = {
/* columns rows colors chars-per-pixel */
"30 30 115 2 ",
"   c None",
".  c #575D63",
"X  c #585E64",
"o  c #5B6066",
"O  c #6C757E",
"+  c #6E7781",
"@  c #6E7881",
"#  c #727D86",
"$  c #7D8993",
"%  c #76929E",
"&  c #6997A3",
"*  c #59B5BA",
"=  c #6FBBBF",
"-  c #309ECF",
";  c #3099D1",
":  c #1EADDE",
">  c #1FB3DD",
",  c #1FB9DB",
"<  c #2FA4CD",
"1  c #2FAACB",
"2  c #2FB5C7",
"3  c #2FB2C9",
"4  c #30B6C5",
"5  c #30BCC3",
"6  c #20BDDE",
"7  c #1EA5E3",
"8  c #1FACE3",
"9  c #1FB3E1",
"0  c #20B7E0",
"q  c #20B8E0",
"w  c #53BFCE",
"e  c #53B2D3",
"r  c #53BAD1",
"t  c #79A7C6",
"y  c #77B1CE",
"u  c #78B2CF",
"i  c #7BB3D3",
"p  c #20C5D7",
"a  c #21CCD5",
"s  c #21C4DD",
"d  c #22CCDA",
"f  c #23D5D7",
"g  c #23D8D6",
"h  c #23D1D8",
"j  c #52C5C9",
"k  c #54C8CB",
"l  c #59C8DD",
"z  c #54DBF2",
"x  c #86939D",
"c  c #8E969E",
"v  c #8D97A2",
"b  c #8F99A3",
"n  c #929CA5",
"m  c #9CA4AD",
"M  c #9EA7B0",
"N  c #9FA9B3",
"B  c #A3ABB4",
"V  c #A6AEB8",
"C  c #A7B0B9",
"Z  c #AAB3BC",
"A  c #B2B7BE",
"S  c #B3B8BF",
"D  c #8BB1C7",
"F  c #AEB6C1",
"G  c #AFB8C2",
"H  c #B2BBC5",
"J  c #B2BAC6",
"K  c #B2BBC6",
"L  c #B1BAC4",
"P  c #B2BCC6",
"I  c #B3BCC6",
"U  c #B3BCC7",
"Y  c #B3BDC7",
"T  c #B0B9C3",
"R  c #B3BCC8",
"E  c #B4BCC8",
"W  c #B4BDC8",
"Q  c #B4BEC8",
"!  c #B5BEC8",
"~  c #B5BEC9",
"^  c #B5BFC9",
"/  c #B5BECA",
"(  c #B6BFCA",
")  c #B7BFCB",
"_  c #B7C1CB",
"`  c #B6C1CC",
"'  c #B8C1CC",
"]  c #B8C2CC",
"[  c #B9C3CE",
"{  c #BAC3CE",
"}  c #BAC4CE",
"|  c #BAC4CF",
" . c #BBC4D0",
".. c #BBC5D0",
"X. c #BCC5D0",
"o. c #BCC5D1",
"O. c #BCC6D1",
"+. c #BCC6D3",
"@. c #BEC8D3",
"#. c #BDC8D4",
"$. c #BEC8D5",
"%. c #BFC9D5",
"&. c #C0CAD5",
"*. c #C0CAD6",
"=. c #C1CBD6",
"-. c #C1CAD7",
";. c #C1CBD7",
":. c #C2CBD7",
">. c #C2CCD8",
",. c #C3CCD8",
"<. c #C3CDD8",
"1. c #EEEFF0",
"2. c gray98",
"3. c #FAFBFB",
"4. c white",
/* pixels */
"                                                            ",
"                                                            ",
"                                                            ",
"                                                            ",
"        ,.,.,.,.&.&.%.| R L [ _ ( ( ( U L L T F F Z         ",
"      ,.,.,.,.&.&.&.&.&.%.t i i i i i i i i u y y D Z       ",
"      &.N x x x x x x b @.; 7 7 7 8 8 8 8 8 8 8 8 e C       ",
"      &.b # # # # # z % O.- 7 8 8 8 9 9 9 9 9 9 9 e C       ",
"      %.M x x x x x x v  .< : 9 9 9 9 9 0 0 q q q e C       ",
"      O.O.O.O. . .| | [ [ < > 9 0 q q 6 6 6 6 6 6 r V       ",
"       .n # # # # # & $ [ 1 > 6 6 6 6 6 s s s s s r V       ",
"      | v # # # # # l % ( 1 , 6 s s s s s s s s s w V       ",
"      [ V n n n n n n m ( 3 6 s s s s d d d d d d w B       ",
"      ` ( ( ( ( ( ( ( U U 3 p s d d d d d d d d d j B       ",
"      ( ( ( ( U U U L L L 2 p d d d d d d d d d h j B       ",
"      ( U U L L L L L L T 4 p d d d h h h h h h h j B       ",
"      L L L L L T G G G F 5 p d h h h f f f f f f j B       ",
"      L T G G F F F F F F 5 a h f f f f f f f f f j M       ",
"      F F F F F F Z Z Z Z 5 a f f f f f f f f f f j M       ",
"      F F Z Z Z Z Z Z Z Z 5 h f f f f f g g g g g j M       ",
"      Z Z Z Z Z S Z C C C * j k k k k k k j j j j = m       ",
"      Z Z Z C 3.4.A C V V c n m m m B B B B B M M m         ",
"      C C C V 1.3.C V V V o . X X .                         ",
"      V V V V V V V V V B O O @ @ +                         ",
"      V V V V V B B B B B $ x x x x x x x                   ",
"      B B B B B B B B B m $ x x x x x x x                   ",
"                                                            ",
"                                                            ",
"                                                            ",
"                                                            "
};
