/* XPM */
static char *_3bc07a5f9624877a3b4860b49f367ddRuqIXfgLjlELDDmL[] = {
/* columns rows colors chars-per-pixel */
"30 30 134 2 ",
"   c #060505",
".  c #090707",
"X  c #0C0B0B",
"o  c #110F0E",
"O  c #16110E",
"+  c #18120E",
"@  c #121111",
"#  c #1A1512",
"$  c #1E1916",
"%  c #231C17",
"&  c #281E17",
"*  c #241D18",
"=  c #281E19",
"-  c #2D221B",
";  c #31251D",
":  c #35281F",
">  c #38291F",
",  c #362921",
"<  c #3B2C23",
"1  c #3F3026",
"2  c #333333",
"3  c #3E3834",
"4  c #402F25",
"5  c #433126",
"6  c #493629",
"7  c #4E392C",
"8  c #523D2E",
"9  c #433A34",
"0  c #4C3E36",
"q  c #553F30",
"w  c #554235",
"e  c #5C4535",
"r  c #5F4D39",
"t  c #575239",
"y  c #5A543B",
"u  c #604636",
"i  c #6A4D3A",
"p  c #724233",
"a  c #7D4637",
"s  c #6D503D",
"d  c #70523E",
"f  c #5C5F41",
"g  c #605F41",
"h  c #765A45",
"j  c #795C46",
"k  c #7C5F49",
"l  c #735641",
"z  c #526E47",
"x  c #4F7449",
"c  c #487E4D",
"v  c #507148",
"b  c #5B754D",
"n  c #517C4D",
"m  c #7D6049",
"M  c #8C3C34",
"N  c #B94337",
"B  c #CE4335",
"V  c #C3473A",
"C  c #DE493A",
"Z  c #E64C3C",
"A  c #8B6E54",
"S  c #8D7056",
"D  c #8F7258",
"F  c #95795D",
"G  c #C55646",
"H  c #E85342",
"J  c #C66345",
"K  c #C26E4C",
"L  c #D46148",
"P  c #EB6550",
"I  c #ED735B",
"U  c #3F8D53",
"Y  c #3C9256",
"T  c #2DAA5F",
"R  c #28B162",
"E  c #3AB266",
"W  c #34BF6B",
"Q  c #428952",
"!  c #78995C",
"~  c #5EA265",
"^  c #4CBE7C",
"/  c #45BB77",
"(  c #73AD6A",
")  c #2DC56D",
"_  c #2ECC71",
"`  c #38CD74",
"'  c #36CD74",
"]  c #4CC06F",
"[  c #4AC272",
"{  c #50C978",
"}  c #58D07E",
"|  c #8F8955",
" . c #9D8164",
".. c #A08265",
"X. c #A58A6A",
"o. c #B99B79",
"O. c #F1876B",
"+. c #56C183",
"@. c #69D283",
"#. c #C1A681",
"$. c #C7A984",
"%. c #CAAC87",
"&. c #C7AE8B",
"*. c #CBA785",
"=. c #C2BF8F",
"-. c #D1B68E",
";. c #D6B790",
":. c #D7BD93",
">. c #DCBD95",
",. c #F6AA86",
"<. c #EBBB91",
"1. c #C3C191",
"2. c #DFC198",
"3. c #D0CD9B",
"4. c #E2C49A",
"5. c #E8CA9F",
"6. c #F5C79C",
"7. c #FBCA9F",
"8. c #DBDDA6",
"9. c #D6DCA5",
"0. c #EDCEA2",
"q. c #EDD3A4",
"w. c #F5D6A9",
"e. c #FDD6A9",
"r. c #F6DDAD",
"t. c #FBDCAD",
"y. c #FEDFB1",
"u. c #FFE0B1",
"i. c #BCE6CE",
"p. c #B3E4C7",
"a. c #DFF3E7",
"s. c #E8F6EE",
"d. c #EDF8F2",
"f. c white",
/* pixels */
"@ X X X X X X @ @         X @ @ X X X X X @ @ X       X @ @ ",
"@ @ X X X X @ @ X . X X .   @ @ X X X X X @ o   . X .   @ @ ",
"o @ # # # # @ @ O = ; , , > < < < 1 < , - $ X X X X X X . @ ",
"o @ @ @ @ @ % w y z c Q U U U U U U Q c v y 8 $ X X X X . @ ",
"@ @       o r Y T R R R R R R R R R R R R T Y r # X X X @ @ ",
"@ . . X X & z R R R R R R R R R R R R R R R R z - X X X @ @ ",
"X . X X X ; x R R R R R +.p.a.a.p.^ R R R R R x , # # @ @   ",
"@ X X X X ; x R R R R ^ d.f.f.f.f.s./ R R R R x , @ @ @ @ X ",
"@ X X X X ; x R R R R i.f.f.f.f.f.f.i.R R R R x -     . @ @ ",
"@ @ X X X ; n ) ) ) ) ) ) ) ) ) ) ) ) ) ) ) ) n ; X X . o @ ",
"X @ @ @ @ , n _ _ _ _ _ _ _ _ _ _ _ _ _ _ _ _ n ; X X X   @ ",
"@ @ X X X = g E [ } } } } } } } } } } } } { E g - X X X X @ ",
"@ o   . o 7 A d 4.t.2.q.u.u.u.u.u.u.q.>.t.w.h A q @ X X @ @ ",
"@   X X 4  .-.$.y.5.m ..u.u.u.u.u.u...k 5.u.$.-. .4 X X @ o ",
"X . X X q #.:.u.u.4.s S u.u.w.w.u.u.S s 4.u.y.:.#.w @ @ @   ",
"@ X X X 6 X.:.t.u.t.:.0.t.4.:.:.2.t.0.;.t.u.t.:.X.6 X o @ @ ",
"@ @ X X # 8 S 5.u.u.u.w.D l F F h S w.u.u.u.4.S 7 O     @ @ ",
"@ @ X X X o 7 %.u.u.u.5.j i i i i j 5.u.u.u.o.8 X X X . X @ ",
"X @ @ @ @ , f ~ 6.7.7.q.3.1.=.=.1.3.q.7.7.6.~ f : X X X   @ ",
"@ @     + t W ` ( L H K ] ` ` ` ` ] K H L ( ' W t $ X X X @ ",
"@ X   . - n @.8.8.<.P Z J | ! ! | J Z P <.8.9.@.n ; X X @ @ ",
"@ . X X = b r.u.u.u.O.Z Z Z C C Z Z Z O.u.u.u.r.b = X @ @ X ",
"X X X X $ h u.u.u.e.I Z C B B B B C Z I e.u.u.u.h % @ @ @   ",
"@ X X X @ e t.u.u.,.Z Z B B B B B B Z Z ,.u.u.t.e X   X @ @ ",
"@ @ X X X : A &.*.G V N M a p p a M N V G *.&.A ; . .   @ @ ",
"@ @ @ @ @ # 6 0 2 2 2 2 2 e % = e 2 2 2 2 2 w 5 X X X X X @ ",
"X @ @ @ @ @ $ u w 9 3 9 w 8 X @ q w 9 3 3 w e O X X X X   @ ",
"@ @         o $ ; 5 5 5 - o @ @ X % , 5 5 , # X X X X X @ @ ",
"@ X . X X .   @ @ X X X X X @ o   X X .   @ @ X X X X X @ @ ",
"o . X X X X . o @ @ @ @ @ @ @ . X X X X X X @ @ @ @ @ @ @ X "
};
