/* XPM */
static char *_9e845a571df413de9896226c05c47820TfKeEdPAwhDeJU1[] = {
/* columns rows colors chars-per-pixel */
"30 30 21 1 ",
"  c None",
". c #745237",
"X c #765336",
"o c #865F41",
"O c #8D6445",
"+ c #987447",
"@ c #A0784D",
"# c #A0784E",
"$ c #A07550",
"% c #A47A50",
"& c #A77C53",
"* c #AC7E56",
"= c #A68051",
"- c #AE8756",
"; c #B08159",
": c #B2835B",
"> c #BA8C66",
", c #C39A64",
"< c #D6AA70",
"1 c #CFA280",
"2 c #F7CEB3",
/* pixels */
"                              ",
"    XoOOOOOOOOOOOOOOOOOOoX    ",
"    X$;;;;;;;;;;;;;;;;;;$X    ",
"    X$;*&&&&&*;;*&&&&&*;$X    ",
"    X$;#=---=#;;#=---=#;$X    ",
"    X$;#,<<<,#;;#,<<<,#;$X    ",
"    X$;#,<<<,#;;#,<<<,#;$X    ",
"    X$;#,<<<,#;;#,<<<,#;$X    ",
"    X$;#,<<<,#;;#,<<<,#;$X    ",
"    X$;#,<<<,#;;#,<<<,#;$X    ",
"    X$;#,<<<,#;;#,<<<,#;$X    ",
"    X$;#,<<<,#;;#,<<<,#;$X    ",
"    X$;#,<<<,#;;#,<<<,#;$X    ",
"    X$;#=---=#;;#=---=#;$X    ",
"    X$;*&&&&&*;;*&&&&&*;$X    ",
"    X$;;;;;;;;;;;;;;;>2>$X    ",
"    X$;;;;;;;;;;;;;;;;1;$X    ",
"    X$;%+++++%;;%+++++%;$X    ",
"    X$;#,<<<,#;;#,<<<,#;$X    ",
"    X$;#,<<<,#;;#,<<<,#;$X    ",
"    X$;#,<<<,#;;#,<<<,#;$X    ",
"    X$;#,<<<,#;;#,<<<,#;$X    ",
"    X$;#,<<<,#;;#,<<<,#;$X    ",
"    X$;#,<<<,#;;#,<<<,#;$X    ",
"    X$;#,<<<,#;;#,<<<,#;$X    ",
"    X$;#=---=#;;#=---=#;$X    ",
"    X$;*&&&&&*;;*&&&&&*;$X    ",
"    X$;;;;;;;;;;;;;;;;;;$X    ",
"    XoOOOOOOOOOOOOOOOOOOoX    ",
"                              "
};
