/* XPM */
static char *_e6b36ee979c4eea9d115591676694bbhzeMlMXU2iIVMuLM[] = {
/* columns rows colors chars-per-pixel */
"30 30 163 2 ",
"   c None",
".  c #107C42",
"X  c #107D42",
"o  c #107D43",
"O  c #107E43",
"+  c #117E43",
"@  c #9F7A2C",
"#  c #A27E2E",
"$  c #13834A",
"%  c #148348",
"&  c #148549",
"*  c #15864C",
"=  c #15894C",
"-  c #15884D",
";  c #17894F",
":  c #168A4E",
">  c #178A4F",
",  c #168B4F",
"<  c #178B4F",
"1  c #178B50",
"2  c #198D52",
"3  c #188F54",
"4  c #199358",
"5  c #1B9459",
"6  c #1C9659",
"7  c #1C995C",
"8  c #1E9A5D",
"9  c #1D9B5F",
"0  c #209E61",
"q  c #1FA162",
"w  c #20A163",
"e  c #21A064",
"r  c #21A164",
"t  c #22A165",
"y  c #21A365",
"u  c #20A266",
"i  c #21A366",
"p  c #21A367",
"a  c #21A567",
"s  c #22A467",
"d  c #22A567",
"f  c #23A567",
"g  c #21A667",
"h  c #2AA161",
"j  c #22A568",
"k  c #23A668",
"l  c #23A669",
"z  c #23A769",
"x  c #24A769",
"c  c #23A86A",
"v  c #24A86A",
"b  c #24A96B",
"n  c #25AA6B",
"m  c #25AB6B",
"M  c #25AA6C",
"N  c #25AB6C",
"B  c #25AB6D",
"V  c #26AB6C",
"C  c #26AB6D",
"Z  c #27AC6C",
"A  c #26AC6D",
"S  c #26AC6E",
"D  c #27AC6E",
"F  c #26AD6E",
"G  c #27AD6E",
"H  c #27AD6F",
"J  c #27AE6F",
"K  c #27AF6F",
"L  c #2FAA69",
"P  c #28AB6C",
"I  c #28AC6D",
"U  c #29AF6F",
"Y  c #27AF70",
"T  c #28AF70",
"R  c #28B070",
"E  c #28B071",
"W  c #28B171",
"Q  c #29B171",
"!  c #28B271",
"~  c #29B172",
"^  c #29B272",
"/  c #29B273",
"(  c #2AB373",
")  c #2AB474",
"_  c #2BB474",
"`  c #2BB574",
"'  c #2BB575",
"]  c #2BB674",
"[  c #2BB675",
"{  c #2BB775",
"}  c #2BB676",
"|  c #2DB575",
" . c #2EB775",
".. c #2CB676",
"X. c #2CB776",
"o. c #2CB777",
"O. c #2CB877",
"+. c #2DB877",
"@. c #2DB977",
"#. c #2DB978",
"$. c #2DB979",
"%. c #2DBA78",
"&. c #2DBA79",
"*. c #2DBB79",
"=. c #2EBA79",
"-. c #2EBB7A",
";. c #36B471",
":. c #36B572",
">. c #30BB79",
",. c #30BE7C",
"<. c #79AD50",
"1. c #7AAE51",
"2. c #8EA63E",
"3. c #A3A83B",
"4. c #A4A93C",
"5. c #D9981F",
"6. c #DA981F",
"7. c #CBA227",
"8. c #D8A221",
"9. c #DDA621",
"0. c #DEA721",
"q. c #E3AB21",
"w. c #E8AC24",
"e. c #EAB323",
"r. c #EFB321",
"t. c #F0B421",
"y. c #F0B523",
"u. c #F1B625",
"i. c #F1B727",
"p. c #F2B829",
"a. c #F2B82A",
"s. c #F3B92A",
"d. c #F4BB2E",
"f. c #F4BC30",
"g. c #F4BC31",
"h. c #F5BD32",
"j. c #F5BE34",
"k. c #F5BE35",
"l. c #F6C037",
"z. c #F6C038",
"x. c #F7C23C",
"c. c #F8C23D",
"v. c #F8C33D",
"b. c #F8C33E",
"n. c #F9C43F",
"m. c #8FA940",
"M. c #B4B645",
"N. c #B6B946",
"B. c #F0C241",
"V. c #F9C440",
"C. c #FAC542",
"Z. c #FAC643",
"A. c #FAC745",
"S. c #FBC745",
"D. c #FBC847",
"F. c #FCC949",
"G. c #FDCA4C",
"H. c #FDCB4C",
"J. c #FDCB4D",
"K. c #FDCC4E",
"L. c #FECC4F",
"P. c #FECD50",
"I. c #FECE52",
/* pixels */
"                                                            ",
"                                                            ",
"                                                            ",
"                        #.#.#.#.O.}                         ",
"                    #.#.#.O.X.} } } ( (                     ",
"                    O.X.} } } ( ( ( ( (                     ",
"                  X.} } } ( ( ( ( T J J P                   ",
"                  } ( ( ( ( T J J J B B m                   ",
"                  ( ( T J J J J B B m m l                   ",
"                  Y J J J B B m m l l l g                   ",
"                I L N.B.S.G.L.L.G.S.B.M.h r                 ",
"                m # z.V.D.L.I.I.L.D.V.z.@ r                 ",
"                m.5.l.n.D.G.I.I.G.D.n.l.5.2.                ",
"                  w.j.v.V.F.G.G.F.V.v.j.w.                  ",
"                  i.g.z.v.V.S.S.V.v.z.g.i.                  ",
"                    a.g.l.x.v.v.x.l.g.a.                    ",
"                    y.a.d.g.j.j.g.d.a.y.                    ",
"                      e.i.a.a.a.a.i.e.                      ",
"                        q.r.y.y.r.q.                        ",
"                        4.8.0.0.8.3.                        ",
"                  > & ,.>.1.7.7.1.X.X.% *                   ",
"              * O > J #.#.X.;.;.} } } g > O $               ",
"            O 2 B #.#.O.X.} } } ( ( ( ( Y r > O             ",
"            I #.O.X.X.} } } ( ( ( T J J J B B w             ",
"          O.O.X.} } ( ( ( ( ( ( J J B B m m l l g           ",
"          } } 0 O O O x J J J J B m r O O O 5 r r           ",
"          ( ( 6 O O O w J B m m c l 7 O O O 3 r r           ",
"            T 7 1 > > q c c l g g r 7 > > > 4 r             ",
"                                                            ",
"                                                            "
};
