/* XPM */
static char *dcded7480bcb4678a8cee0da8c9a301dEaFkFmHrZeDIzAzj[] = {
/* columns rows colors chars-per-pixel */
"30 30 206 2 ",
"   c #111010",
".  c #0C0B0B",
"X  c #0E0C0C",
"o  c #0A0909",
"O  c #060505",
"+  c #0F0E0E",
"@  c #121111",
"#  c #0B0A0A",
"$  c #0D0C0C",
"%  c #0E0D0D",
"&  c #080707",
"*  c #090808",
"=  c #090707",
"-  c #070606",
";  c #110F0F",
":  c #161414",
">  c #141313",
",  c #160A0B",
"<  c #110C0D",
"1  c #5C0F15",
"2  c #351215",
"3  c #0E0E0F",
"4  c #0D0D0E",
"5  c #A41722",
"6  c #5A1319",
"7  c #0B1117",
"8  c #073457",
"9  c #07395F",
"0  c #0B1116",
"q  c #191415",
"w  c #1D1516",
"e  c #171515",
"r  c #161515",
"t  c #A41723",
"y  c #5C1319",
"u  c #0C0909",
"i  c #180C0D",
"p  c #131212",
"a  c #0F3552",
"s  c #036AB8",
"d  c #0270C6",
"f  c #101E2A",
"g  c #3D1216",
"h  c #241112",
"j  c #0A0808",
"k  c #240D0F",
"l  c #78131B",
"z  c #160D0E",
"x  c #101921",
"c  c #065490",
"v  c #0075CF",
"b  c #045DA1",
"n  c #0F1922",
"m  c #510C12",
"M  c #82121B",
"N  c #25090B",
"B  c #A31622",
"V  c #151313",
"C  c #340D10",
"Z  c #B11724",
"A  c #1F0D0E",
"S  c #052F4F",
"D  c #0169B9",
"F  c #0170C5",
"G  c #052946",
"H  c #08090B",
"J  c #540E14",
"K  c #84131C",
"L  c #290C0E",
"P  c #A21521",
"I  c #121010",
"U  c #350C10",
"Y  c #B01723",
"T  c #1E0C0E",
"R  c #0D1A24",
"E  c #03518C",
"W  c #0076D0",
"Q  c #04477B",
"!  c #091219",
"~  c #100F0F",
"^  c #550F15",
"/  c #85141D",
"(  c #2A0D10",
")  c #A31521",
"_  c #580F15",
"`  c #3B1215",
"'  c #B11824",
"]  c #231112",
"[  c #043052",
"{  c #016BBB",
"}  c #0262AC",
"|  c #092236",
" . c #0C0C0D",
".. c #390E11",
"X. c #571116",
"o. c #200D0F",
"O. c #6E1118",
"+. c #391114",
"@. c #240E0F",
"#. c #7A131B",
"$. c #130C0C",
"%. c #0F1D29",
"&. c #03518D",
"*. c #0073CB",
"=. c #08385F",
"-. c #0D1014",
";. c #0E0B0B",
":. c #0F0C0C",
">. c #0D0909",
",. c #080606",
"<. c #0C0708",
"1. c #0B3659",
"2. c #026EC2",
"3. c #04528E",
"4. c #0B1B28",
"5. c #1F120C",
"6. c #984822",
"7. c #9F4B24",
"8. c #843E1F",
"9. c #1F130D",
"0. c #9B4822",
"q. c #9C4822",
"w. c #241812",
"e. c #19100D",
"r. c #8B401E",
"t. c #984520",
"y. c #71351A",
"u. c #1C120D",
"i. c #140E0B",
"p. c #693018",
"a. c #95421E",
"s. c #96421F",
"d. c #4F2513",
"f. c #100A08",
"g. c #0E0A0A",
"h. c #3E1E11",
"j. c #8F3D1B",
"k. c #933F1C",
"l. c #873A1A",
"z. c #31190F",
"x. c #0C0A09",
"c. c #211612",
"v. c #6F3117",
"b. c #903D1A",
"n. c #8E3C1A",
"m. c #5C2915",
"M. c #1B110E",
"N. c #050404",
"B. c #090605",
"V. c #32160B",
"C. c #793215",
"Z. c #8D3A18",
"A. c #713015",
"S. c #2E180F",
"D. c #100E0D",
"F. c #110A08",
"G. c #3F1B0D",
"H. c #783014",
"J. c #8A3716",
"K. c #893716",
"L. c #723015",
"P. c #36190E",
"I. c #110D0C",
"U. c #140C0A",
"Y. c #38180D",
"T. c #6C2C15",
"R. c #853415",
"E. c #883515",
"W. c #823314",
"Q. c #632912",
"!. c #351B12",
"~. c #18110F",
"^. c #0F0A09",
"/. c #24120C",
"(. c #4E2213",
"). c #752E14",
"_. c #843214",
"`. c #863314",
"'. c #843314",
"]. c #702C14",
"[. c #3F1B0E",
"{. c #1E0E09",
"}. c #151110",
"|. c #241510",
" X c #5D230F",
".X c #7D2D12",
"XX c #7F2E12",
"oX c #7D2E12",
"OX c #5B2310",
"+X c #100B0A",
"@X c #17110F",
"#X c #521F0E",
"$X c #802F13",
"%X c #833013",
"&X c #7C2E12",
"*X c #4B1F0F",
"=X c #23120C",
"-X c #28140D",
";X c #26130C",
":X c #25110A",
">X c #2A1610",
",X c #2C1811",
"<X c #2E1A13",
"1X c #2D1A13",
"2X c #291913",
"3X c #1B1513",
/* pixels */
"  . . X X . o     O O O O +   @ # $ X $ o @   o O O O o   @ ",
"  @ # . . # @   % & * * = -     o . . . +   ; - = * = -     ",
";   : : : :     & o . . # = $   > : : :     = * # . # o =   ",
";               = . $ X $ , <               = # $ X $ o &   ",
"    O - - O +   + . X X $ 1 2   O - - - *   @ # $ 3 4 # @   ",
"  = = o o * -   @ o . . . 5 6 $ & o o * &     . 7 8 9 0     ",
"+ = # . . . * .   q w e r t y & u i . . * &   p a s d f   - ",
"@ * . X X . o p   g 6 h   t y j k l z $ o $   x c v b n   $ ",
"  + . $ X . #     m M N - B y V C Z A . o     S D F G H     ",
"    o . . o @   # J K L * P y I U Y T o >   R E W Q ! = ~   ",
"+               & ^ / ( . ) _ I ` ' ]       [ { } |  .o -   ",
"@   . . . #     = ..X.o.$ O.+.  @.#.$.#   %.&.*.=.-.$ # o   ",
"  ~ - & & - .   @ ;.:.:.. >.I   ,.<.& - - 1.2.3.4.X $ o @   ",
"  ,.5.6.7.7.7.7.7.7.7.7.7.7.7.7.7.7.7.7.7.7.7.7.7.8.9.+   ; ",
"% = 9.0.q.q.q.q.q.q.q.q.q.q.q.q.q.q.q.q.q.q.q.q.q.8.w.    - ",
"@ o e.r.t.t.t.t.t.t.t.t.t.t.t.t.t.t.t.t.t.t.t.t.t.y.u.~     ",
"  @ i.p.a.a.a.a.a.a.a.a.a.a.a.a.a.a.a.a.a.a.a.a.s.d.f.-     ",
"    g.h.j.k.k.k.k.k.k.k.k.k.k.k.k.k.k.k.k.k.k.k.l.z.x.= %   ",
".     c.v.b.b.b.b.b.b.b.b.b.b.b.b.b.b.b.b.b.b.n.m.M.. o -   ",
"@   N.B.V.C.Z.Z.Z.Z.Z.Z.Z.Z.Z.Z.Z.Z.Z.Z.Z.Z.Z.A.S.D.X # %   ",
"  X - = F.G.H.J.J.J.J.J.J.J.J.J.J.J.J.J.J.K.L.P.I.$ . o @   ",
"  & o . . U.Y.T.R.E.E.E.E.E.E.E.E.E.E.E.W.Q.!.~.o # o     $ ",
"+ * . $ X . ^./.(.)._.`.`.`.`.`.`.`.'.].[.{.}.            - ",
"  o . X % . o   |. X.XXXXXXXXXXXXXXXoXOX+X>   . N.N.N.$   > ",
"  p # $ $ . @   @X#X$X%X%X%X%X%X%X%X&X*X#     - & = & -     ",
"    > > > >     - U.=X-X;X:X>X,X<X1X2X3X@   # * # . o * #   ",
"$               = # $ X . o =               & # $ X $ o -   ",
"    N.O O O ;   o . X % $ o @   O O O O X   ~ # X % X # @   ",
"  o & * * = -   @ o . $ . %   ~ - * * = -     o . $ . o     ",
"; & o . . # = ~   p p p @ @   & o . . # * o   p @ p @ @   * "
};
