/* XPM */
static char *db8f51c4aff54e80d8f0628897941a8fQ902IYhPXSLVVjHp[] = {
/* columns rows colors chars-per-pixel */
"30 30 149 2 ",
"   c #060505",
".  c #090707",
"X  c #0B0807",
"o  c #0C0B0B",
"O  c #110F0F",
"+  c #17120F",
"@  c #121111",
"#  c #1C1612",
"$  c #1E1916",
"%  c #231A15",
"&  c #231C18",
"*  c #291F19",
"=  c #2C221C",
"-  c #32261E",
";  c #362922",
":  c #3B2C23",
">  c #333333",
",  c #3E3834",
"<  c #383533",
"1  c #443227",
"2  c #4E3A2D",
"3  c #523C2E",
"4  c #5F3F2F",
"5  c #493C36",
"6  c #453B35",
"7  c #573F30",
"8  c #5F3935",
"9  c #653A35",
"0  c #564031",
"q  c #5B4333",
"w  c #564834",
"e  c #594F38",
"r  c #5D523B",
"t  c #555F3F",
"y  c #5A5B3F",
"u  c #604636",
"i  c #634837",
"p  c #624E3A",
"a  c #694C39",
"s  c #6E4433",
"d  c #7F4635",
"f  c #764C39",
"g  c #6B513E",
"h  c #625A3F",
"j  c #65543D",
"k  c #70533F",
"l  c #5C554C",
"z  c #605E41",
"x  c #725540",
"c  c #7A5D46",
"v  c #5B6544",
"b  c #576845",
"n  c #4F7449",
"m  c #497D4D",
"M  c #507047",
"N  c #567049",
"B  c #5C714E",
"V  c #776349",
"C  c #874938",
"Z  c #8D4B39",
"A  c #AA4C3A",
"S  c #CE4C3B",
"D  c #DC4A3B",
"F  c #E74C3C",
"G  c #E2503F",
"H  c #8B6E55",
"J  c #92745A",
"K  c #96785D",
"L  c #BD6948",
"P  c #BC724E",
"I  c #B07A52",
"U  c #9C7E62",
"Y  c #A47C66",
"T  c #E85342",
"R  c #C06F4D",
"E  c #C77E5A",
"W  c #D4755C",
"Q  c #EC6A53",
"!  c #EF7F64",
"~  c #389757",
"^  c #349E5A",
"/  c #2EA85E",
"(  c #2AAE61",
")  c #28B162",
"_  c #2BBE69",
"`  c #2ABA67",
"'  c #32B569",
"]  c #36BC6A",
"[  c #38BA69",
"{  c #418952",
"}  c #46985A",
"|  c #7E945A",
" . c #6A9160",
".. c #4FB567",
"X. c #47BD79",
"o. c #2CC56D",
"O. c #2DC96F",
"+. c #31C56E",
"@. c #2ECC71",
"#. c #34CB72",
"$. c #3ACD75",
"%. c #49C16F",
"&. c #42C772",
"*. c #4ACF7A",
"=. c #52CC7A",
"-. c #58D07E",
";. c #968453",
":. c #A98559",
">. c #9D8063",
",. c #9D8B73",
"<. c #A38668",
"1. c #B79977",
"2. c #B49775",
"3. c #F18A6D",
"4. c #E99573",
"5. c #75D387",
"6. c #AC9C92",
"7. c #B8BE8D",
"8. c #ACBAA6",
"9. c #BEB2AA",
"0. c #C4A682",
"q. c #CEB08A",
"w. c #C2BF8F",
"e. c #D1B38C",
"r. c #DCBD95",
"t. c #88D58D",
"y. c #93D690",
"u. c #99D692",
"i. c #B6D99B",
"p. c #AAD897",
"a. c #A2DDBB",
"s. c #CBC897",
"d. c #EEC097",
"f. c #E7C89E",
"g. c #E1C299",
"h. c #FBCA9F",
"j. c #D0DCA3",
"k. c #DDDBA6",
"l. c #F9CBA0",
"z. c #E2DBA6",
"x. c #F2D4A7",
"c. c #F6D7AA",
"v. c #FEDFB0",
"b. c #FFE0B1",
"n. c #BAE6CD",
"m. c #DFF7E9",
"M. c #DAF5E5",
"N. c white",
"B. c #F5FBF8",
/* pixels */
"@ o o o o o o @ @         o @ @ o o o o o @ @ o       o @ @ ",
"@ @ o o o o @ @ o . o o .   @ @ o o o o o @ O   . o .   @ @ ",
"O @ # # # # @ @ o + % - - = - ; ; ; ; = $ @ . o o o o o . @ ",
"O @ @ @ @ @ @ = 3 r v m m m m m m m m b r ; . o o o o o . @ ",
"@ @       # 0 n ~ / ) ) ) ) ) ) ) ) ) ) ^ p $ o o o o o @ @ ",
"@ . . o $ w { ( ) ) ) ) ) ) ) ) ) ) ) ) ' B = o o o o o @ @ ",
"o . o o 3 { ) ) ) ) ) ) ) ) ) ) ) ) ' a.B.6.= @ # # # @ @   ",
"@ o o # t / ) ) ) ) ) ) ) ) ) ) ) ) n.N.N.9.; @ @ @ @ @ @ o ",
"O o o * m ) ) ) ) ) ) ) ) ) ) ) ) X.M.m.m.8.z i 1 #   . @ @ ",
"O O o = m ) ) ) ` ` ` _ o.o.O.O.@.@.@.@.@.@.@.+.} y + . O @ ",
"o O @ & M ` _ o.O.@.@.@.@.@.@.@.@.@.@.@.@.@.+.+.] N # o   @ ",
"@ @ o # v ] +.+.+.] ] [ =.-.5.5.y.u.i.i.j.v y y e 1 o o o @ ",
"@ O   o 0 h z z h h j V x.b.b.r.r.b.b.b.b.a $ # @ o o o @ @ ",
"@   o o 7 a a a J r.r.e.v.b.b.c J b.b.b.b.a @ o o o o o @ O ",
"o . o o 7 a a a c.b.b.b.b.b.b.k H b.b.b.b.J i # @ @ @ @ @   ",
"@ o o o 3 a a a x.b.b.b.b.b.b.r.g.x.0.2.q.b.U - o o o O @ @ ",
"@ @ o o 1 k c K r.b.b.b.b.b.b.b.r.c a a a <.g %   .     @ @ ",
"@ @ o o - >.f.b.b.b.b.b.b.b.b.b.1.x a a a a = . o o o . o @ ",
"o @ @ @ & g d.h.h.z.z.z.z.l.h.z.k.s.w.7. .q o o o o o o   @ ",
"@ @     X 4 G T P $.$.*.&.R T I %.$.$.#.+.p O o o o o o o @ ",
"@ o   . # d F F ;.t.j.k.p.:.F F L | ..#.@.b $ o o o o o @ @ ",
"@ . o o * C F F E b.b.b.b.4.F F F F F F F Z & O o o o @ @ o ",
"o o o o * C F F 3.b.b.b.b.! F F F F F F F Z & @ @ @ @ @ @   ",
"@ o o o $ s F F Q b.b.b.,.5 8 D F F F F F f # o       o @ @ ",
"@ @ o o o 1 A S S W Y l > > > 9 S S S S A 0 @   . . .   @ @ ",
"@ @ @ @ @ $ 2 0 3 u 6 > > > > < i 0 0 0 2 & o o o o o o o @ ",
"o @ @ @ @ @ @ @ . - q 5 , , 6 q ; @ @ @ @ @ . o o o o o   @ ",
"@ @         O @ o o $ : 1 1 1 * .       o @ O o o o o o @ @ ",
"@ o . o o .   @ @ o o o o o @ O   o o .   @ @ o o o o o @ @ ",
"O . o o o o . O @ @ @ @ @ @ @ . o o o o o o @ @ @ @ @ @ @ o "
};
