/* XPM */
static char *_8d17cecea6e4fc8c444c8d899050c46pPzv6kdUGsJVBtqx[] = {
/* columns rows colors chars-per-pixel */
"30 30 144 2 ",
"   c #060505",
".  c #090707",
"X  c #0C0B0B",
"o  c #100F0F",
"O  c #16110F",
"+  c #121111",
"@  c #1B1613",
"#  c #1E1916",
"$  c #211915",
"%  c #231C18",
"&  c #291F19",
"*  c #2C221C",
"=  c #32261E",
"-  c #362921",
";  c #3A2C22",
":  c #343333",
">  c #383533",
",  c #3E3834",
"<  c #402F24",
"1  c #443227",
"2  c #4C382C",
"3  c #533D2E",
"4  c #443B35",
"5  c #4D3F36",
"6  c #483634",
"7  c #563F31",
"8  c #603F30",
"9  c #564233",
"0  c #5C4434",
"q  c #564834",
"w  c #594F38",
"e  c #5D523B",
"r  c #555F3F",
"t  c #5A5B3F",
"y  c #624736",
"u  c #634837",
"i  c #634C39",
"p  c #694C39",
"a  c #754037",
"s  c #7C4536",
"d  c #6B513E",
"f  c #625A3F",
"g  c #65543D",
"h  c #70533F",
"j  c #605E41",
"k  c #725540",
"l  c #7A5D46",
"z  c #5B6544",
"x  c #576845",
"c  c #4F7449",
"v  c #497D4D",
"b  c #507047",
"n  c #567049",
"m  c #5C714E",
"M  c #776349",
"N  c #8F4037",
"B  c #8D4B39",
"V  c #C3473A",
"C  c #C6483B",
"Z  c #CD4C3B",
"A  c #E74C3C",
"S  c #E2503F",
"D  c #8B6E55",
"F  c #92745A",
"G  c #96785D",
"H  c #BD6948",
"J  c #BE704E",
"K  c #B5744F",
"L  c #B07A52",
"P  c #9C7E62",
"I  c #E55240",
"U  c #E85342",
"Y  c #EB6550",
"T  c #389757",
"R  c #349E5A",
"E  c #2EA85E",
"W  c #2AAE61",
"Q  c #28B162",
"!  c #2ABA67",
"~  c #2BBE69",
"^  c #32B569",
"/  c #36BC6A",
"(  c #38BA69",
")  c #418952",
"_  c #46985A",
"`  c #7E955A",
"'  c #6A9160",
"]  c #4FB567",
"[  c #47BD79",
"{  c #2CC56D",
"}  c #2DC96F",
"|  c #31C56E",
" . c #2ECC71",
".. c #34CB72",
"X. c #38CD74",
"o. c #49C16F",
"O. c #52CC7A",
"+. c #58D07E",
"@. c #8E915B",
"#. c #9D8063",
"$. c #A38668",
"%. c #B79977",
"&. c #B49775",
"*. c #F08368",
"=. c #69D283",
"-. c #75D387",
";. c #7ED188",
":. c #AC9C92",
">. c #B8BE8D",
",. c #ACBAA6",
"<. c #BEB2AA",
"1. c #C4A682",
"2. c #CEB08A",
"3. c #C2BF8F",
"4. c #D6B289",
"5. c #DCBD95",
"6. c #F5A280",
"7. c #F7AD88",
"8. c #F8B48E",
"9. c #8BD58D",
"0. c #93D690",
"q. c #99D692",
"w. c #B6D99B",
"e. c #A2DDBB",
"r. c #CBC897",
"t. c #EEC097",
"y. c #E7C89E",
"u. c #E1C299",
"i. c #F7C59B",
"p. c #FBCA9F",
"a. c #DCDBA5",
"s. c #D0DCA3",
"d. c #E1DCA7",
"f. c #E9DEAA",
"g. c #F2D3A6",
"h. c #F6D7AA",
"j. c #F7DFAE",
"k. c #FEDFB0",
"l. c #FFE0B1",
"z. c #BAE6CD",
"x. c #DFF7E9",
"c. c #DAF5E5",
"v. c white",
"b. c #F5FBF8",
/* pixels */
"+ X X X X X X + +         X + + X X X X X + + X       X + + ",
"+ + X X X X + + X . X X .   + + X X X X X + o   . X .   + + ",
"o + @ @ @ @ + + X O % = = * = - - - - * # + . X X X X X . + ",
"o + + + + + + * 3 e z v v v v v v v v x e - . X X X X X . + ",
"+ +       @ 9 c T E Q Q Q Q Q Q Q Q Q Q R i # X X X X X + + ",
"+ . . X # q ) W Q Q Q Q Q Q Q Q Q Q Q Q ^ m * X X X X X + + ",
"X . X X 3 ) Q Q Q Q Q Q Q Q Q Q Q Q ^ e.b.:.* + @ @ @ + +   ",
"+ X X @ r E Q Q Q Q Q Q Q Q Q Q Q Q z.v.v.<.- + + + + + + X ",
"o X X & v Q Q Q Q Q Q Q Q Q Q Q Q [ c.x.x.,.j u 1 @   . + + ",
"o o X * v Q Q Q ! ! ! ~ { { } }  . . . . . . .| _ t O . o + ",
"X o + % b ! ~ { }  . . . . . . . . . . . . .| | / n @ X   + ",
"+ + X @ z / | | | / / ( O.+.-.-.0.q.w.w.s.z t t w 1 X X X + ",
"+ o   X 9 f j j f f g M g.l.l.5.5.l.l.l.l.p # @ + X X X + + ",
"+   X X 7 p p p F 5.5.2.k.l.l.l F l.l.l.l.p + X X X X X + o ",
"X . X X 7 p p p h.l.l.l.l.l.l.h D l.l.l.l.F u @ + + + + +   ",
"+ X X X 3 p p p g.l.l.l.l.l.l.5.u.g.1.&.2.l.P = X X X o + + ",
"+ + X X 1 h l G 5.l.l.l.l.l.l.l.5.l p p p $.d %   .     + + ",
"+ + X X = #.y.l.l.l.l.l.l.l.l.l.%.k p p p p * . X X X . X + ",
"X + + + % d t.p.d.d.d.d.g.p.p.d.a.r.3.>.' 0 X X X X X X   + ",
"+ +     X 8 S J ;.9.=.X.@.U U L o.X.X...| i o X X X X X X + ",
"+ X   . @ s A 4.j.l.f.=.` A A A H ` ] .. .x # X X X X X + + ",
"+ . X X & B Y l.l.l.l.a.K A A A A A A A A B = o X X X + + X ",
"X X X # 0 s Y l.l.l.l.i.I A A A A A A A A a y ; + + + + +   ",
"+ X X 1 4 6 A *.7.8.6.Y A A A A A A A A A 6 > i       X + + ",
"+ + X - 5 : N V V C Z Z Z Z Z Z Z C V V N : 4 3 . . .   + + ",
"+ + + @ 7 5 : : : 4 y 7 3 3 9 9 0 9 : : : 4 0 $ X X X X X + ",
"X + + + # 2 0 4 , 9 ; X X X . + % 0 4 4 9 9 O X X X X X   + ",
"+ +       . % 1 1 = O X X X + +   $ < ; * @ o X X X X X + + ",
"+ X . X X .   + + X X X X X + o   X X .   + + X X X X X + + ",
"o . X X X X . o + + + + + + + . X X X X X X + + + + + + + X "
};
